%TF.GenerationSoftware,KiCad,Pcbnew,9.0.0*%
%TF.CreationDate,2026-01-24T15:45:23+11:00*%
%TF.ProjectId,Split Keyboard,53706c69-7420-44b6-9579-626f6172642e,rev?*%
%TF.SameCoordinates,Original*%
%TF.FileFunction,Soldermask,Top*%
%TF.FilePolarity,Negative*%
%FSLAX46Y46*%
G04 Gerber Fmt 4.6, Leading zero omitted, Abs format (unit mm)*
G04 Created by KiCad (PCBNEW 9.0.0) date 2026-01-24 15:45:23*
%MOMM*%
%LPD*%
G01*
G04 APERTURE LIST*
G04 Aperture macros list*
%AMRoundRect*
0 Rectangle with rounded corners*
0 $1 Rounding radius*
0 $2 $3 $4 $5 $6 $7 $8 $9 X,Y pos of 4 corners*
0 Add a 4 corners polygon primitive as box body*
4,1,4,$2,$3,$4,$5,$6,$7,$8,$9,$2,$3,0*
0 Add four circle primitives for the rounded corners*
1,1,$1+$1,$2,$3*
1,1,$1+$1,$4,$5*
1,1,$1+$1,$6,$7*
1,1,$1+$1,$8,$9*
0 Add four rect primitives between the rounded corners*
20,1,$1+$1,$2,$3,$4,$5,0*
20,1,$1+$1,$4,$5,$6,$7,0*
20,1,$1+$1,$6,$7,$8,$9,0*
20,1,$1+$1,$8,$9,$2,$3,0*%
G04 Aperture macros list end*
%ADD10RoundRect,0.250001X-1.099999X-3.499999X1.099999X-3.499999X1.099999X3.499999X-1.099999X3.499999X0*%
%ADD11C,3.200000*%
%ADD12RoundRect,0.250000X-0.450000X0.350000X-0.450000X-0.350000X0.450000X-0.350000X0.450000X0.350000X0*%
%ADD13RoundRect,0.250000X-0.475000X0.337500X-0.475000X-0.337500X0.475000X-0.337500X0.475000X0.337500X0*%
%ADD14RoundRect,0.250001X1.099999X3.499999X-1.099999X3.499999X-1.099999X-3.499999X1.099999X-3.499999X0*%
%ADD15C,0.500000*%
%ADD16RoundRect,0.250000X0.650000X-1.000000X0.650000X1.000000X-0.650000X1.000000X-0.650000X-1.000000X0*%
%ADD17RoundRect,0.250000X0.450000X-0.350000X0.450000X0.350000X-0.450000X0.350000X-0.450000X-0.350000X0*%
%ADD18RoundRect,0.250000X-0.337500X-0.475000X0.337500X-0.475000X0.337500X0.475000X-0.337500X0.475000X0*%
%ADD19RoundRect,0.250000X-0.350000X-0.450000X0.350000X-0.450000X0.350000X0.450000X-0.350000X0.450000X0*%
%ADD20RoundRect,0.150000X-0.512500X-0.150000X0.512500X-0.150000X0.512500X0.150000X-0.512500X0.150000X0*%
%ADD21RoundRect,0.150000X0.512500X0.150000X-0.512500X0.150000X-0.512500X-0.150000X0.512500X-0.150000X0*%
%ADD22C,1.800000*%
%ADD23RoundRect,0.450000X0.450000X0.450000X-0.450000X0.450000X-0.450000X-0.450000X0.450000X-0.450000X0*%
%ADD24O,1.800000X4.340000*%
%ADD25C,1.700000*%
%ADD26C,3.400000*%
G04 APERTURE END LIST*
D10*
%TO.C,L2*%
X302620000Y-73300000D03*
X308420000Y-73300000D03*
%TD*%
D11*
%TO.C,H11*%
X73500000Y-23600000D03*
%TD*%
%TO.C,H4*%
X276610000Y-105960000D03*
%TD*%
D12*
%TO.C,R12*%
X311480000Y-82160000D03*
X311480000Y-84160000D03*
%TD*%
D13*
%TO.C,C5*%
X44100000Y-80862500D03*
X44100000Y-82937500D03*
%TD*%
D11*
%TO.C,H9*%
X62400000Y-124400000D03*
%TD*%
D12*
%TO.C,R1*%
X52400000Y-85912500D03*
X52400000Y-87912500D03*
%TD*%
D13*
%TO.C,C8*%
X311330000Y-78292500D03*
X311330000Y-80367500D03*
%TD*%
D14*
%TO.C,L1*%
X44500000Y-73100000D03*
X38700000Y-73100000D03*
%TD*%
D15*
%TO.C,H1*%
X171820000Y-61610000D03*
X174820000Y-61610000D03*
X174820000Y-60860000D03*
X171820000Y-60848000D03*
X171820000Y-60098000D03*
X174820000Y-60098000D03*
X171820000Y-59348000D03*
X174820000Y-59348000D03*
X171820000Y-58574000D03*
X174820000Y-58574000D03*
%TD*%
D11*
%TO.C,H3*%
X70400000Y-106100000D03*
%TD*%
%TO.C,H10*%
X178495000Y-24200000D03*
%TD*%
D12*
%TO.C,R3*%
X52400000Y-81100000D03*
X52400000Y-83100000D03*
%TD*%
D16*
%TO.C,D55*%
X35100000Y-75800000D03*
X35100000Y-71800000D03*
%TD*%
D11*
%TO.C,H5*%
X125300000Y-103800000D03*
%TD*%
D16*
%TO.C,D56*%
X311920000Y-75860000D03*
X311920000Y-71860000D03*
%TD*%
D17*
%TO.C,R9*%
X37700000Y-82500000D03*
X37700000Y-80500000D03*
%TD*%
D18*
%TO.C,C7*%
X34862500Y-78500000D03*
X36937500Y-78500000D03*
%TD*%
D11*
%TO.C,H12*%
X221660000Y-103630000D03*
%TD*%
D17*
%TO.C,R4*%
X292895000Y-82800000D03*
X292895000Y-80800000D03*
%TD*%
D11*
%TO.C,H7*%
X168300000Y-24200000D03*
%TD*%
%TO.C,H6*%
X273370000Y-23425000D03*
%TD*%
D19*
%TO.C,R11*%
X35300000Y-84500000D03*
X37300000Y-84500000D03*
%TD*%
D15*
%TO.C,H2*%
X171910000Y-95302000D03*
X174910000Y-95302000D03*
X174910000Y-94552000D03*
X171910000Y-94540000D03*
X171910000Y-93790000D03*
X174910000Y-93790000D03*
X171910000Y-93040000D03*
X174910000Y-93040000D03*
X171910000Y-92266000D03*
X174910000Y-92266000D03*
%TD*%
D20*
%TO.C,U7*%
X39825000Y-78900000D03*
X39825000Y-79850000D03*
X39825000Y-80800000D03*
X42100000Y-80800000D03*
X42100000Y-79850000D03*
X42100000Y-78900000D03*
%TD*%
D15*
%TO.C,H15*%
X171840000Y-34856000D03*
X174840000Y-34856000D03*
X174840000Y-34106000D03*
X171840000Y-34094000D03*
X171840000Y-33344000D03*
X174840000Y-33344000D03*
X171840000Y-32594000D03*
X174840000Y-32594000D03*
X171840000Y-31820000D03*
X174840000Y-31820000D03*
%TD*%
D13*
%TO.C,C6*%
X302090000Y-80062500D03*
X302090000Y-82137500D03*
%TD*%
D11*
%TO.C,H8*%
X284670000Y-124375000D03*
%TD*%
D17*
%TO.C,R2*%
X292895000Y-87600000D03*
X292895000Y-85600000D03*
%TD*%
D21*
%TO.C,U8*%
X306627500Y-81010000D03*
X306627500Y-80060000D03*
X306627500Y-79110000D03*
X304352500Y-79110000D03*
X304352500Y-80060000D03*
X304352500Y-81010000D03*
%TD*%
D12*
%TO.C,R10*%
X308940000Y-79210000D03*
X308940000Y-81210000D03*
%TD*%
D22*
%TO.C,U9*%
X47310000Y-70150000D03*
X47310000Y-72690000D03*
D23*
X47310000Y-75230000D03*
X47310000Y-77770000D03*
D22*
X47310000Y-80310000D03*
X47310000Y-82850000D03*
X47310000Y-85390000D03*
X47310000Y-87930000D03*
X47310000Y-90470000D03*
X47310000Y-93010000D03*
X47310000Y-95550000D03*
X47310000Y-98090000D03*
D24*
X32070000Y-68880000D03*
D23*
X32070000Y-72690000D03*
D22*
X32070000Y-75230000D03*
X32070000Y-77770000D03*
X32070000Y-80310000D03*
X32070000Y-82850000D03*
X32070000Y-85390000D03*
X32070000Y-87930000D03*
X32070000Y-90470000D03*
X32070000Y-93010000D03*
X32070000Y-95550000D03*
X32070000Y-98090000D03*
X44770000Y-93010000D03*
X42230000Y-93010000D03*
X39690000Y-93010000D03*
D23*
X47310000Y-67610000D03*
D22*
X32070000Y-67610000D03*
%TD*%
D25*
%TO.C,SW31*%
X107837218Y-90650000D03*
D26*
X102337218Y-90650000D03*
D25*
X96837218Y-90650000D03*
%TD*%
%TO.C,SW3*%
X145937218Y-33500000D03*
D26*
X140437218Y-33500000D03*
D25*
X134937218Y-33500000D03*
%TD*%
%TO.C,SW35*%
X69737218Y-91650000D03*
D26*
X64237218Y-91650000D03*
D25*
X58737218Y-91650000D03*
%TD*%
%TO.C,SW45*%
X269045000Y-91625000D03*
D26*
X263545000Y-91625000D03*
D25*
X258045000Y-91625000D03*
%TD*%
%TO.C,SW53*%
X115500000Y-111600000D03*
D26*
X110083558Y-112555065D03*
D25*
X104667116Y-113510130D03*
%TD*%
%TO.C,SW19*%
X192845000Y-54525000D03*
D26*
X187345000Y-54525000D03*
D25*
X181845000Y-54525000D03*
%TD*%
%TO.C,SW34*%
X88787218Y-72600000D03*
D26*
X83287218Y-72600000D03*
D25*
X77787218Y-72600000D03*
%TD*%
%TO.C,SW12*%
X288095000Y-34475000D03*
D26*
X282595000Y-34475000D03*
D25*
X277095000Y-34475000D03*
%TD*%
%TO.C,SW27*%
X145937218Y-90650000D03*
D26*
X140437218Y-90650000D03*
D25*
X134937218Y-90650000D03*
%TD*%
%TO.C,SW47*%
X288095000Y-91625000D03*
D26*
X282595000Y-91625000D03*
D25*
X277095000Y-91625000D03*
%TD*%
%TO.C,SW32*%
X107837218Y-71600000D03*
D26*
X102337218Y-71600000D03*
D25*
X96837218Y-71600000D03*
%TD*%
%TO.C,SW9*%
X88787218Y-34500000D03*
D26*
X83287218Y-34500000D03*
D25*
X77787218Y-34500000D03*
%TD*%
%TO.C,SW49*%
X51413245Y-112935332D03*
D26*
X47200000Y-109400000D03*
D25*
X42986755Y-105864668D03*
%TD*%
%TO.C,SW17*%
X88787218Y-53550000D03*
D26*
X83287218Y-53550000D03*
D25*
X77787218Y-53550000D03*
%TD*%
%TO.C,SW29*%
X126887218Y-89150000D03*
D26*
X121387218Y-89150000D03*
D25*
X115887218Y-89150000D03*
%TD*%
%TO.C,SW44*%
X249995000Y-71575000D03*
D26*
X244495000Y-71575000D03*
D25*
X238995000Y-71575000D03*
%TD*%
%TO.C,SW54*%
X242322654Y-113423525D03*
D26*
X236906211Y-112468460D03*
D25*
X231489768Y-111513395D03*
%TD*%
%TO.C,SW14*%
X145937218Y-52550000D03*
D26*
X140437218Y-52550000D03*
D25*
X134937218Y-52550000D03*
%TD*%
%TO.C,SW4*%
X211895000Y-33475000D03*
D26*
X206395000Y-33475000D03*
D25*
X200895000Y-33475000D03*
%TD*%
%TO.C,SW1*%
X164987218Y-35500000D03*
D26*
X159487218Y-35500000D03*
D25*
X153987218Y-35500000D03*
%TD*%
%TO.C,SW18*%
X69737218Y-53550000D03*
D26*
X64237218Y-53550000D03*
D25*
X58737218Y-53550000D03*
%TD*%
%TO.C,SW13*%
X164987218Y-54550000D03*
D26*
X159487218Y-54550000D03*
D25*
X153987218Y-54550000D03*
%TD*%
%TO.C,SW26*%
X164987218Y-73600000D03*
D26*
X159487218Y-73600000D03*
D25*
X153987218Y-73600000D03*
%TD*%
%TO.C,SW43*%
X249995000Y-90625000D03*
D26*
X244495000Y-90625000D03*
D25*
X238995000Y-90625000D03*
%TD*%
%TO.C,SW50*%
X304003013Y-105778063D03*
D26*
X299789769Y-109313395D03*
D25*
X295576525Y-112848727D03*
%TD*%
%TO.C,SW41*%
X230945000Y-89125000D03*
D26*
X225445000Y-89125000D03*
D25*
X219945000Y-89125000D03*
%TD*%
%TO.C,SW25*%
X164987218Y-92650000D03*
D26*
X159487218Y-92650000D03*
D25*
X153987218Y-92650000D03*
%TD*%
%TO.C,SW36*%
X69737218Y-72600000D03*
D26*
X64237218Y-72600000D03*
D25*
X58737218Y-72600000D03*
%TD*%
%TO.C,SW42*%
X230945000Y-70075000D03*
D26*
X225445000Y-70075000D03*
D25*
X219945000Y-70075000D03*
%TD*%
%TO.C,SW7*%
X230945000Y-31975000D03*
D26*
X225445000Y-31975000D03*
D25*
X219945000Y-31975000D03*
%TD*%
%TO.C,SW52*%
X269389769Y-120913395D03*
D26*
X263889769Y-120913395D03*
D25*
X258389769Y-120913395D03*
%TD*%
%TO.C,SW37*%
X192845000Y-92625000D03*
D26*
X187345000Y-92625000D03*
D25*
X181845000Y-92625000D03*
%TD*%
%TO.C,SW24*%
X288095000Y-53525000D03*
D26*
X282595000Y-53525000D03*
D25*
X277095000Y-53525000D03*
%TD*%
%TO.C,SW20*%
X211895000Y-52525000D03*
D26*
X206395000Y-52525000D03*
D25*
X200895000Y-52525000D03*
%TD*%
%TO.C,SW11*%
X269045000Y-34475000D03*
D26*
X263545000Y-34475000D03*
D25*
X258045000Y-34475000D03*
%TD*%
%TO.C,SW6*%
X107837218Y-33500000D03*
D26*
X102337218Y-33500000D03*
D25*
X96837218Y-33500000D03*
%TD*%
%TO.C,SW2*%
X192845000Y-35475000D03*
D26*
X187345000Y-35475000D03*
D25*
X181845000Y-35475000D03*
%TD*%
%TO.C,SW22*%
X249995000Y-52525000D03*
D26*
X244495000Y-52525000D03*
D25*
X238995000Y-52525000D03*
%TD*%
%TO.C,SW51*%
X88600000Y-121000000D03*
D26*
X83100000Y-121000000D03*
D25*
X77600000Y-121000000D03*
%TD*%
%TO.C,SW30*%
X126887218Y-70100000D03*
D26*
X121387218Y-70100000D03*
D25*
X115887218Y-70100000D03*
%TD*%
%TO.C,SW5*%
X126887218Y-32000000D03*
D26*
X121387218Y-32000000D03*
D25*
X115887218Y-32000000D03*
%TD*%
%TO.C,SW39*%
X211895000Y-90625000D03*
D26*
X206395000Y-90625000D03*
D25*
X200895000Y-90625000D03*
%TD*%
%TO.C,SW40*%
X211895000Y-71575000D03*
D26*
X206395000Y-71575000D03*
D25*
X200895000Y-71575000D03*
%TD*%
%TO.C,SW8*%
X249995000Y-33475000D03*
D26*
X244495000Y-33475000D03*
D25*
X238995000Y-33475000D03*
%TD*%
%TO.C,SW28*%
X145937218Y-71600000D03*
D26*
X140437218Y-71600000D03*
D25*
X134937218Y-71600000D03*
%TD*%
%TO.C,SW21*%
X230945000Y-51025000D03*
D26*
X225445000Y-51025000D03*
D25*
X219945000Y-51025000D03*
%TD*%
%TO.C,SW23*%
X269045000Y-53525000D03*
D26*
X263545000Y-53525000D03*
D25*
X258045000Y-53525000D03*
%TD*%
%TO.C,SW46*%
X269045000Y-72575000D03*
D26*
X263545000Y-72575000D03*
D25*
X258045000Y-72575000D03*
%TD*%
%TO.C,SW48*%
X288095000Y-72575000D03*
D26*
X282595000Y-72575000D03*
D25*
X277095000Y-72575000D03*
%TD*%
%TO.C,SW10*%
X69737218Y-34500000D03*
D26*
X64237218Y-34500000D03*
D25*
X58737218Y-34500000D03*
%TD*%
%TO.C,SW33*%
X88787218Y-91650000D03*
D26*
X83287218Y-91650000D03*
D25*
X77787218Y-91650000D03*
%TD*%
%TO.C,SW16*%
X107837218Y-52550000D03*
D26*
X102337218Y-52550000D03*
D25*
X96837218Y-52550000D03*
%TD*%
%TO.C,SW38*%
X192845000Y-73575000D03*
D26*
X187345000Y-73575000D03*
D25*
X181845000Y-73575000D03*
%TD*%
%TO.C,SW15*%
X126887218Y-51050000D03*
D26*
X121387218Y-51050000D03*
D25*
X115887218Y-51050000D03*
%TD*%
D22*
%TO.C,U10*%
X299440000Y-67840000D03*
D23*
X314680000Y-67840000D03*
D22*
X307060000Y-93240000D03*
X309600000Y-93240000D03*
X312140000Y-93240000D03*
X299440000Y-98320000D03*
X299440000Y-95780000D03*
X299440000Y-93240000D03*
X299440000Y-90700000D03*
X299440000Y-88160000D03*
X299440000Y-85620000D03*
X299440000Y-83080000D03*
X299440000Y-80540000D03*
X299440000Y-78000000D03*
X299440000Y-75460000D03*
D23*
X299440000Y-72920000D03*
D24*
X299440000Y-69110000D03*
D22*
X314680000Y-98320000D03*
X314680000Y-95780000D03*
X314680000Y-93240000D03*
X314680000Y-90700000D03*
X314680000Y-88160000D03*
X314680000Y-85620000D03*
X314680000Y-83080000D03*
X314680000Y-80540000D03*
D23*
X314680000Y-78000000D03*
X314680000Y-75460000D03*
D22*
X314680000Y-72920000D03*
X314680000Y-70380000D03*
%TD*%
M02*
