M48
; DRILL file {KiCad 9.0.0} date 2026-01-24T15:45:27+1100
; FORMAT={-:-/ absolute / metric / decimal}
; #@! TF.CreationDate,2026-01-24T15:45:27+11:00
; #@! TF.GenerationSoftware,Kicad,Pcbnew,9.0.0
; #@! TF.FileFunction,Plated,1,2,PTH
FMAT,2
METRIC
; #@! TA.AperFunction,Plated,PTH,ViaDrill
T1C0.300
; #@! TA.AperFunction,Plated,PTH,ViaDrill
T2C0.500
; #@! TA.AperFunction,Plated,PTH,ViaDrill
T3C0.700
; #@! TA.AperFunction,Plated,PTH,ViaDrill
T4C0.800
; #@! TA.AperFunction,Plated,PTH,ViaDrill
T5C0.900
; #@! TA.AperFunction,Plated,PTH,ViaDrill
T6C1.000
; #@! TA.AperFunction,Plated,PTH,ComponentDrill
T7C1.000
; #@! TA.AperFunction,Plated,PTH,ViaDrill
T8C1.100
; #@! TA.AperFunction,Plated,PTH,ViaDrill
T9C1.200
; #@! TA.AperFunction,Plated,PTH,ComponentDrill
T10C3.000
%
G90
G05
T1
X30.66Y-104.1
X31.25Y-101.95
X32.33Y-104.21
X36.3Y-87.8
X43.95Y-108.42
X44.8Y-118.1
X46.49Y-105.88
X46.49Y-113.4
X46.49Y-121.12
X49.0Y-117.8
X49.03Y-113.5
X49.03Y-121.12
X49.938Y-77.916
X51.0Y-117.8
X51.57Y-121.12
X51.57Y-123.66
X54.0Y-87.5
X54.11Y-24.6
X54.11Y-27.14
X54.11Y-29.68
X54.11Y-32.22
X54.11Y-34.76
X54.11Y-105.88
X54.11Y-113.5
X54.11Y-116.04
X54.11Y-121.12
X54.11Y-123.66
X54.11Y-126.2
X54.8Y-91.97
X54.98Y-82.45
X55.4Y-93.4
X56.65Y-52.54
X56.65Y-55.08
X56.65Y-60.16
X56.65Y-62.7
X56.65Y-65.24
X56.65Y-105.88
X56.65Y-116.04
X56.65Y-121.12
X56.65Y-123.66
X56.65Y-126.2
X57.25Y-87.47
X58.0Y-79.5
X58.16Y-116.75
X58.3Y-24.45
X58.54Y-27.92
X59.0Y-89.92
X59.19Y-29.68
X59.19Y-105.88
X59.19Y-108.42
X59.19Y-110.96
X59.19Y-118.58
X59.19Y-121.12
X59.19Y-123.66
X59.19Y-126.2
X59.19Y-128.74
X59.28Y-63.21
X59.85Y-24.92
X61.24Y-51.31
X61.54Y-28.1
X61.73Y-24.6
X61.73Y-34.76
X61.73Y-37.3
X61.73Y-39.84
X61.73Y-60.16
X61.73Y-62.7
X61.73Y-65.24
X61.73Y-70.32
X61.73Y-72.86
X61.73Y-75.4
X61.73Y-77.94
X61.73Y-105.88
X61.73Y-108.42
X61.73Y-110.96
X61.73Y-121.12
X61.73Y-128.74
X64.27Y-24.6
X64.27Y-37.3
X64.27Y-62.7
X64.27Y-65.24
X64.27Y-75.4
X64.27Y-105.88
X64.27Y-108.42
X64.27Y-113.5
X64.27Y-116.04
X64.27Y-121.12
X64.27Y-128.74
X65.33Y-45.3
X66.81Y-24.6
X66.81Y-27.14
X66.81Y-34.76
X66.81Y-37.3
X66.81Y-55.08
X66.81Y-62.7
X66.81Y-65.24
X66.81Y-70.32
X66.81Y-72.86
X66.81Y-75.4
X66.81Y-90.64
X66.81Y-93.18
X66.81Y-105.88
X66.81Y-108.42
X66.81Y-113.5
X66.81Y-116.04
X66.81Y-121.12
X66.81Y-123.66
X66.81Y-126.2
X66.81Y-128.74
X68.3Y-51.6
X68.51Y-68.13
X68.63Y-31.36
X68.66Y-86.59
X69.07Y-32.51
X69.35Y-24.6
X69.35Y-27.14
X69.35Y-62.7
X69.35Y-65.24
X69.35Y-113.5
X69.35Y-116.04
X69.35Y-121.12
X69.35Y-123.66
X69.35Y-126.2
X69.35Y-128.74
X69.44Y-57.5
X70.25Y-60.06
X70.73Y-67.12
X71.88Y-67.28
X71.89Y-27.14
X71.89Y-39.84
X71.89Y-55.08
X71.89Y-77.94
X71.89Y-90.64
X71.89Y-108.42
X71.89Y-113.5
X71.89Y-116.04
X71.89Y-121.12
X71.89Y-123.66
X71.89Y-126.2
X71.89Y-128.74
X72.55Y-97.97
X72.96Y-59.91
X73.01Y-45.07
X74.43Y-27.14
X74.43Y-55.08
X74.43Y-60.16
X74.43Y-93.18
X74.43Y-105.88
X74.43Y-108.42
X74.43Y-116.04
X74.43Y-121.12
X74.43Y-128.74
X76.5Y-51.7
X76.52Y-110.68
X76.97Y-24.6
X76.97Y-60.16
X76.97Y-65.24
X76.97Y-108.42
X76.97Y-113.5
X76.97Y-128.74
X77.04Y-106.36
X79.51Y-105.88
X79.51Y-128.74
X79.95Y-90.85
X80.65Y-45.07
X82.05Y-27.04
X82.05Y-65.14
X82.05Y-75.4
X82.05Y-108.42
X82.05Y-110.96
X82.05Y-113.5
X82.05Y-123.66
X83.19Y-83.59
X84.59Y-27.04
X84.59Y-65.14
X84.59Y-75.4
X84.59Y-105.88
X84.59Y-108.42
X84.59Y-110.96
X84.59Y-113.5
X84.59Y-123.66
X85.36Y-89.198
X86.46Y-72.93
X87.13Y-34.76
X87.13Y-108.42
X87.13Y-110.96
X87.13Y-123.66
X87.55Y-29.59
X87.67Y-28.31
X87.75Y-69.205
X87.83Y-115.69
X87.91Y-64.78
X88.3Y-55.64
X89.19Y-102.06
X89.22Y-107.1
X89.67Y-39.84
X89.67Y-42.38
X89.67Y-60.16
X89.67Y-65.24
X89.67Y-77.94
X89.67Y-110.96
X89.67Y-126.2
X89.67Y-128.74
X90.55Y-28.55
X90.86Y-52.78
X91.14Y-50.53
X91.83Y-85.02
X92.21Y-39.84
X92.21Y-42.38
X92.21Y-60.16
X92.21Y-65.24
X92.21Y-77.94
X92.21Y-105.88
X92.21Y-118.58
X92.21Y-123.66
X92.21Y-126.2
X92.21Y-128.74
X92.62Y-50.6
X93.44Y-116.19
X94.75Y-32.22
X94.75Y-34.76
X94.75Y-39.84
X94.75Y-42.38
X94.75Y-52.54
X94.75Y-60.16
X94.75Y-65.24
X94.75Y-70.32
X94.75Y-72.86
X94.75Y-77.94
X94.75Y-85.56
X94.75Y-90.64
X94.75Y-100.8
X94.75Y-105.88
X94.75Y-108.42
X94.75Y-110.96
X94.75Y-118.58
X94.75Y-121.12
X94.75Y-123.66
X94.75Y-126.2
X94.75Y-128.74
X97.0Y-47.51
X97.14Y-87.71
X97.29Y-27.14
X97.29Y-39.84
X97.29Y-50.0
X97.29Y-60.16
X97.29Y-65.24
X97.29Y-77.94
X97.29Y-85.56
X97.29Y-110.96
X97.29Y-116.04
X97.29Y-118.58
X97.29Y-121.12
X97.29Y-123.66
X97.29Y-126.2
X97.29Y-128.74
X97.64Y-113.91
X99.58Y-83.239
X99.64Y-87.79
X99.83Y-32.22
X99.83Y-34.76
X99.83Y-37.3
X99.83Y-39.84
X99.83Y-52.54
X99.83Y-55.08
X99.83Y-57.62
X99.83Y-60.16
X99.83Y-70.32
X99.83Y-72.86
X99.83Y-75.4
X99.83Y-77.94
X99.83Y-90.64
X99.83Y-93.18
X99.83Y-95.72
X99.83Y-98.26
X99.83Y-100.8
X99.83Y-103.34
X99.83Y-105.78
X99.83Y-108.42
X99.83Y-116.04
X99.83Y-118.58
X99.83Y-121.12
X99.83Y-123.66
X99.83Y-126.2
X102.37Y-55.08
X102.37Y-93.18
X102.37Y-100.8
X102.37Y-103.24
X102.37Y-108.42
X102.37Y-110.96
X102.37Y-121.12
X102.37Y-123.66
X104.91Y-32.22
X104.91Y-34.76
X104.91Y-50.0
X104.91Y-52.54
X104.91Y-55.08
X104.91Y-70.32
X104.91Y-72.86
X104.91Y-75.4
X104.91Y-90.64
X104.91Y-93.18
X104.91Y-100.8
X104.91Y-105.88
X104.91Y-108.42
X104.91Y-121.12
X106.58Y-87.09
X106.6Y-28.58
X106.62Y-66.27
X106.7Y-26.96
X107.45Y-80.48
X107.45Y-100.8
X107.45Y-110.96
X107.45Y-113.5
X107.45Y-121.12
X109.68Y-83.84
X109.8Y-65.51
X109.99Y-37.3
X109.99Y-39.84
X109.99Y-57.62
X109.99Y-60.06
X109.99Y-77.94
X109.99Y-95.72
X109.99Y-98.26
X109.99Y-100.8
X109.99Y-121.12
X110.04Y-28.0
X112.53Y-39.84
X112.53Y-52.54
X112.53Y-57.62
X112.53Y-60.06
X112.53Y-80.48
X112.53Y-90.64
X112.53Y-95.72
X112.53Y-98.26
X112.53Y-100.8
X112.53Y-110.96
X112.53Y-121.12
X115.01Y-42.11
X115.07Y-39.84
X115.07Y-57.62
X115.07Y-60.06
X115.07Y-77.94
X115.07Y-80.48
X115.07Y-95.72
X115.07Y-98.26
X115.07Y-100.8
X115.07Y-113.5
X115.07Y-121.12
X115.74Y-63.67
X116.46Y-44.82
X117.61Y-32.22
X117.61Y-95.72
X117.61Y-98.26
X117.61Y-100.8
X117.61Y-105.88
X117.61Y-108.42
X117.61Y-110.96
X117.61Y-118.58
X117.61Y-121.12
X118.87Y-63.37
X120.15Y-34.76
X120.15Y-60.06
X120.15Y-80.38
X120.15Y-98.26
X120.15Y-100.8
X120.15Y-105.88
X120.15Y-108.42
X120.15Y-116.04
X120.15Y-118.58
X122.69Y-34.76
X122.69Y-60.06
X122.69Y-80.38
X122.69Y-98.26
X122.69Y-100.8
X122.69Y-103.34
X122.69Y-105.88
X122.69Y-108.42
X122.69Y-110.96
X122.69Y-113.5
X122.69Y-116.04
X124.85Y-63.53
X125.23Y-22.06
X125.23Y-32.22
X125.23Y-34.76
X125.23Y-50.0
X125.23Y-52.54
X125.23Y-60.06
X125.23Y-70.32
X125.23Y-80.38
X125.23Y-88.1
X125.23Y-90.64
X125.23Y-98.26
X125.23Y-100.8
X125.23Y-108.42
X125.23Y-110.96
X125.61Y-85.69
X125.82Y-66.99
X125.83Y-28.05
X127.77Y-22.06
X127.77Y-37.3
X127.77Y-39.84
X127.77Y-57.62
X127.77Y-60.06
X127.77Y-75.4
X127.77Y-77.94
X127.77Y-80.38
X127.77Y-95.72
X127.77Y-98.26
X127.77Y-100.8
X127.77Y-103.34
X127.77Y-105.88
X128.62Y-45.71
X128.8Y-47.17
X129.25Y-83.26
X129.46Y-63.45
X130.31Y-22.06
X130.31Y-34.76
X130.31Y-39.84
X130.31Y-60.06
X130.31Y-72.86
X130.31Y-77.94
X130.31Y-80.38
X130.31Y-98.26
X130.31Y-100.8
X130.38Y-64.53
X130.72Y-83.59
X132.62Y-64.19
X132.85Y-32.22
X132.85Y-34.76
X132.85Y-39.84
X132.85Y-47.46
X132.85Y-50.0
X132.85Y-52.54
X132.85Y-60.06
X132.85Y-77.94
X132.85Y-88.1
X132.85Y-90.64
X132.85Y-98.26
X132.85Y-100.8
X133.85Y-81.44
X134.89Y-64.63
X135.39Y-98.26
X135.39Y-100.8
X137.69Y-64.51
X137.93Y-32.22
X137.93Y-34.76
X137.93Y-37.3
X137.93Y-39.84
X137.93Y-52.54
X137.93Y-55.08
X137.93Y-57.62
X137.93Y-60.06
X137.93Y-70.32
X137.93Y-72.86
X137.93Y-75.4
X137.93Y-77.94
X137.93Y-83.02
X137.93Y-90.64
X137.93Y-93.18
X137.93Y-95.72
X137.93Y-98.26
X137.93Y-100.8
X138.17Y-81.19
X140.47Y-55.08
X140.47Y-83.02
X140.47Y-93.18
X140.47Y-100.8
X140.81Y-64.16
X143.01Y-32.22
X143.01Y-34.76
X143.01Y-37.3
X143.01Y-50.0
X143.01Y-52.54
X143.01Y-55.08
X143.01Y-70.32
X143.01Y-72.86
X143.01Y-83.02
X143.01Y-90.64
X143.01Y-93.18
X143.01Y-100.8
X143.13Y-64.31
X144.62Y-66.83
X144.74Y-87.11
X144.89Y-45.58
X145.55Y-54.98
X145.55Y-100.8
X146.48Y-42.21
X147.39Y-65.49
X147.92Y-29.78
X148.09Y-32.22
X148.09Y-37.3
X148.09Y-39.84
X148.09Y-52.44
X148.09Y-57.62
X148.09Y-60.06
X148.09Y-95.72
X148.09Y-98.26
X148.09Y-100.8
X148.28Y-84.52
X148.37Y-45.71
X148.66Y-65.44
X148.78Y-47.53
X150.63Y-27.14
X150.63Y-34.76
X150.63Y-47.46
X150.63Y-55.08
X150.63Y-70.32
X150.63Y-93.18
X150.63Y-100.8
X153.17Y-27.14
X153.17Y-42.38
X153.17Y-47.46
X153.17Y-52.54
X153.17Y-62.7
X153.17Y-80.48
X153.17Y-100.8
X155.71Y-27.14
X155.71Y-34.76
X155.71Y-100.8
X156.74Y-65.91
X157.53Y-47.23
X158.25Y-27.14
X158.25Y-57.62
X158.25Y-83.02
X158.25Y-95.72
X159.04Y-65.98
X160.79Y-57.62
X160.79Y-83.02
X160.79Y-95.72
X161.2Y-66.05
X161.26Y-44.68
X162.14Y-85.56
X163.29Y-66.33
X163.33Y-24.6
X163.33Y-34.76
X163.33Y-37.3
X163.33Y-44.92
X163.33Y-52.54
X163.33Y-55.08
X163.33Y-62.7
X163.33Y-72.86
X163.33Y-75.4
X163.33Y-83.02
X163.33Y-93.18
X163.33Y-95.72
X163.33Y-100.8
X165.87Y-24.5
X165.87Y-42.38
X165.87Y-44.92
X165.87Y-57.62
X165.87Y-60.16
X165.87Y-62.7
X165.87Y-80.48
X165.87Y-83.02
X165.87Y-85.46
X165.87Y-98.26
X165.87Y-100.8
X166.08Y-51.86
X166.3Y-27.7
X166.6Y-31.71
X168.41Y-27.04
X168.41Y-29.68
X168.41Y-39.84
X168.41Y-42.38
X168.41Y-44.92
X168.41Y-55.08
X168.41Y-57.62
X168.41Y-60.16
X168.41Y-62.7
X168.41Y-65.24
X168.41Y-67.78
X168.41Y-77.94
X168.41Y-80.48
X168.41Y-83.02
X168.41Y-85.56
X168.41Y-95.72
X168.41Y-98.26
X168.41Y-100.8
X176.98Y-27.23
X176.98Y-29.77
X176.98Y-32.31
X176.98Y-34.85
X176.98Y-42.47
X176.98Y-45.01
X176.98Y-47.55
X176.98Y-50.09
X176.98Y-52.63
X176.98Y-55.17
X176.98Y-60.25
X176.98Y-62.79
X176.98Y-65.33
X176.98Y-67.87
X176.98Y-70.41
X176.98Y-72.95
X176.98Y-80.57
X176.98Y-83.11
X176.98Y-85.65
X176.98Y-88.19
X176.98Y-90.73
X176.98Y-93.27
X176.98Y-98.35
X176.98Y-100.89
X179.52Y-27.23
X179.52Y-29.77
X179.52Y-32.31
X179.52Y-34.85
X179.52Y-42.47
X179.52Y-45.01
X179.52Y-47.55
X179.52Y-50.09
X179.52Y-52.63
X179.52Y-55.17
X179.52Y-62.79
X179.52Y-65.33
X179.52Y-67.87
X179.52Y-70.41
X179.52Y-72.95
X179.52Y-80.57
X179.52Y-83.11
X179.52Y-85.65
X179.52Y-88.19
X179.52Y-90.73
X179.52Y-93.27
X179.52Y-100.89
X182.06Y-24.69
X182.06Y-27.23
X182.06Y-29.77
X182.06Y-32.31
X182.06Y-52.63
X182.06Y-62.79
X182.06Y-70.41
X182.06Y-80.57
X182.06Y-83.11
X182.06Y-90.73
X182.06Y-100.89
X184.57Y-28.85
X184.6Y-24.69
X184.6Y-34.85
X184.6Y-37.39
X184.6Y-42.47
X184.6Y-45.01
X184.6Y-65.33
X184.6Y-72.95
X184.6Y-75.49
X184.6Y-80.57
X184.6Y-83.11
X184.67Y-85.55
X187.14Y-45.01
X187.14Y-57.71
X187.14Y-65.33
X187.14Y-83.11
X188.02Y-23.77
X189.68Y-27.23
X189.68Y-37.39
X189.68Y-45.01
X189.68Y-52.63
X189.68Y-57.71
X189.68Y-62.79
X189.68Y-65.33
X189.68Y-75.49
X189.68Y-83.11
X189.68Y-100.89
X191.27Y-46.75
X192.22Y-37.39
X192.22Y-45.01
X192.22Y-50.09
X192.22Y-52.63
X192.22Y-62.79
X192.22Y-65.33
X192.22Y-75.49
X192.22Y-83.11
X192.22Y-85.65
X192.22Y-88.19
X192.22Y-100.89
X193.77Y-98.95
X193.94Y-68.79
X194.57Y-32.05
X194.76Y-100.89
X195.37Y-28.45
X195.37Y-69.05
X197.3Y-27.23
X197.3Y-39.93
X197.3Y-42.47
X197.3Y-60.25
X197.3Y-62.79
X197.3Y-72.95
X197.3Y-78.03
X197.3Y-80.57
X197.3Y-90.73
X197.37Y-45.45
X198.87Y-49.15
X199.84Y-24.69
X199.84Y-29.77
X199.84Y-39.93
X199.84Y-42.47
X199.84Y-45.01
X199.84Y-60.25
X199.84Y-62.79
X199.84Y-65.33
X199.84Y-78.03
X199.84Y-80.57
X199.84Y-88.19
X202.38Y-24.69
X204.92Y-24.69
X204.92Y-42.47
X204.92Y-45.01
X204.92Y-55.17
X204.92Y-62.79
X204.92Y-80.57
X204.92Y-93.27
X205.27Y-83.05
X207.46Y-22.15
X207.46Y-24.69
X207.46Y-42.47
X207.46Y-45.01
X207.46Y-55.17
X207.46Y-62.79
X207.46Y-80.57
X207.46Y-93.27
X210.0Y-22.15
X210.0Y-24.69
X210.0Y-32.31
X210.0Y-34.85
X210.0Y-42.47
X210.0Y-45.01
X210.0Y-52.63
X210.0Y-55.17
X210.0Y-62.79
X210.0Y-70.41
X210.0Y-72.95
X210.0Y-80.57
X210.0Y-88.19
X210.0Y-90.73
X210.0Y-93.27
X212.54Y-22.15
X212.54Y-24.69
X212.54Y-37.39
X212.54Y-39.93
X212.54Y-42.47
X212.54Y-47.55
X212.54Y-57.71
X212.54Y-60.25
X212.54Y-62.79
X212.54Y-78.03
X212.54Y-80.57
X212.54Y-88.19
X212.54Y-95.81
X213.27Y-99.65
X213.44Y-27.91
X213.67Y-30.85
X213.97Y-69.85
X215.08Y-22.15
X215.08Y-24.69
X216.77Y-41.05
X217.62Y-22.15
X217.62Y-27.23
X217.62Y-32.31
X217.62Y-50.09
X217.62Y-52.63
X217.62Y-57.71
X217.62Y-60.25
X217.62Y-70.41
X217.62Y-78.03
X217.62Y-88.19
X217.62Y-90.73
X217.62Y-95.81
X217.9Y-85.06
X218.87Y-82.15
X220.16Y-22.15
X220.16Y-27.23
X220.16Y-39.93
X220.16Y-42.47
X220.16Y-57.71
X220.16Y-60.25
X220.16Y-65.33
X220.16Y-78.03
X222.7Y-22.15
X222.7Y-32.31
X222.7Y-37.39
X222.7Y-39.93
X222.7Y-42.47
X222.7Y-50.09
X222.7Y-52.63
X222.7Y-57.71
X222.7Y-60.25
X222.7Y-70.41
X222.7Y-75.49
X222.7Y-78.03
X222.7Y-88.19
X222.7Y-90.73
X222.7Y-95.81
X222.7Y-111.05
X222.7Y-113.59
X225.24Y-22.15
X225.24Y-34.85
X225.24Y-42.47
X225.24Y-60.25
X225.24Y-72.95
X225.24Y-105.97
X225.24Y-111.05
X225.24Y-113.59
X225.24Y-116.13
X225.24Y-118.67
X225.74Y-81.2
X227.17Y-105.65
X227.78Y-22.15
X227.78Y-29.77
X227.78Y-34.85
X227.78Y-42.47
X227.78Y-52.63
X227.78Y-60.25
X227.78Y-67.87
X227.78Y-72.95
X227.78Y-90.73
X227.78Y-111.05
X227.78Y-118.67
X230.17Y-47.15
X230.32Y-22.15
X230.32Y-60.25
X230.32Y-85.65
X230.32Y-118.67
X230.32Y-121.21
X231.47Y-45.05
X231.55Y-82.78
X232.58Y-64.16
X232.77Y-66.95
X232.86Y-22.15
X232.86Y-37.39
X232.86Y-39.93
X232.86Y-50.09
X232.86Y-55.17
X232.86Y-57.71
X232.86Y-60.25
X232.86Y-72.95
X232.86Y-75.49
X232.86Y-78.03
X232.86Y-88.19
X232.86Y-93.27
X232.86Y-95.81
X232.87Y-30.25
X233.18Y-26.29
X233.62Y-104.55
X235.4Y-22.15
X236.87Y-84.15
X237.57Y-43.85
X237.94Y-27.23
X237.94Y-39.93
X237.94Y-60.25
X237.94Y-65.33
X237.94Y-78.03
X237.94Y-80.57
X237.94Y-88.19
X237.94Y-116.13
X238.07Y-47.35
X240.48Y-113.59
X240.48Y-116.13
X241.57Y-49.55
X243.02Y-42.47
X243.02Y-55.17
X243.02Y-80.57
X243.02Y-93.27
X243.02Y-103.43
X243.02Y-116.13
X243.02Y-118.67
X245.56Y-42.47
X245.56Y-55.17
X245.56Y-80.57
X245.56Y-93.27
X245.56Y-103.43
X245.56Y-113.59
X245.56Y-116.13
X246.77Y-109.55
X248.1Y-32.31
X248.1Y-34.85
X248.1Y-42.47
X248.1Y-52.63
X248.1Y-55.17
X248.1Y-70.41
X248.1Y-72.95
X248.1Y-80.57
X248.1Y-88.19
X248.1Y-90.73
X248.1Y-93.27
X248.1Y-103.43
X248.1Y-113.59
X248.1Y-118.67
X248.1Y-121.21
X248.1Y-123.75
X248.77Y-49.05
X249.97Y-48.05
X250.64Y-39.93
X250.64Y-42.47
X250.64Y-57.71
X250.64Y-60.25
X250.64Y-78.03
X250.64Y-80.57
X250.64Y-88.19
X250.64Y-95.81
X250.64Y-103.43
X250.64Y-116.13
X250.64Y-118.67
X250.64Y-121.21
X250.64Y-123.75
X250.64Y-126.29
X251.27Y-68.75
X251.57Y-30.45
X253.18Y-118.67
X253.18Y-121.21
X253.18Y-123.75
X253.18Y-126.29
X253.18Y-128.83
X254.37Y-45.05
X255.72Y-27.23
X255.72Y-32.31
X255.72Y-34.85
X255.72Y-42.47
X255.72Y-52.63
X255.72Y-55.17
X255.72Y-60.25
X255.72Y-65.33
X255.72Y-70.41
X255.72Y-72.95
X255.72Y-80.57
X255.72Y-88.19
X255.72Y-90.73
X255.72Y-93.27
X255.72Y-128.83
X255.87Y-49.35
X256.47Y-104.88
X258.26Y-27.23
X258.26Y-32.31
X258.26Y-42.47
X258.26Y-45.01
X258.26Y-60.25
X258.26Y-65.33
X258.26Y-70.41
X258.26Y-80.57
X258.26Y-98.35
X258.26Y-111.05
X258.26Y-113.59
X258.26Y-118.67
X258.26Y-128.83
X260.77Y-84.55
X260.8Y-27.23
X260.8Y-32.31
X260.8Y-34.85
X260.8Y-39.93
X260.8Y-42.47
X260.8Y-45.01
X260.8Y-52.63
X260.8Y-55.17
X260.8Y-60.25
X260.8Y-65.33
X260.8Y-70.41
X260.8Y-72.95
X260.8Y-78.03
X260.8Y-80.57
X260.8Y-111.05
X260.8Y-113.59
X260.8Y-118.67
X260.8Y-121.21
X260.87Y-50.65
X263.34Y-37.39
X263.34Y-45.01
X263.34Y-75.49
X263.34Y-105.97
X263.34Y-111.05
X263.34Y-113.59
X265.88Y-27.23
X265.88Y-32.31
X265.88Y-37.39
X265.88Y-55.17
X265.88Y-65.33
X265.88Y-70.41
X265.88Y-75.49
X265.88Y-93.27
X265.88Y-105.97
X265.88Y-111.05
X265.88Y-113.59
X266.47Y-118.75
X267.17Y-103.25
X268.42Y-27.23
X268.42Y-50.09
X268.42Y-65.33
X268.42Y-70.41
X268.42Y-75.49
X268.42Y-85.65
X268.42Y-88.19
X270.77Y-32.75
X270.96Y-22.15
X270.96Y-24.69
X270.96Y-50.09
X270.96Y-52.63
X270.96Y-60.25
X270.96Y-65.33
X270.96Y-72.95
X270.96Y-78.03
X270.96Y-80.57
X270.96Y-85.65
X270.96Y-88.19
X270.96Y-90.73
X270.96Y-95.81
X270.96Y-98.35
X270.96Y-113.59
X270.96Y-123.75
X270.96Y-128.83
X271.27Y-102.35
X272.04Y-103.77
X272.27Y-71.55
X272.27Y-117.35
X273.5Y-60.25
X273.5Y-80.57
X273.5Y-93.27
X273.5Y-121.21
X273.5Y-126.29
X273.97Y-45.25
X274.971Y-55.05
X276.04Y-24.69
X276.04Y-29.77
X276.04Y-118.67
X276.04Y-123.75
X276.47Y-112.25
X276.87Y-64.45
X278.58Y-24.69
X278.58Y-98.35
X278.58Y-113.59
X278.58Y-116.13
X278.58Y-121.21
X278.58Y-128.83
X279.57Y-64.05
X279.77Y-55.05
X279.97Y-84.95
X280.27Y-47.15
X280.87Y-108.45
X281.12Y-24.69
X281.12Y-37.39
X281.12Y-113.59
X281.12Y-116.13
X281.12Y-126.29
X281.12Y-128.83
X283.66Y-24.69
X283.66Y-37.39
X283.66Y-113.59
X283.66Y-116.13
X283.66Y-128.83
X284.77Y-70.25
X284.97Y-32.25
X284.97Y-53.55
X286.07Y-34.85
X286.2Y-24.69
X286.2Y-90.73
X286.2Y-93.27
X286.2Y-113.59
X286.2Y-121.21
X286.2Y-128.83
X286.37Y-64.85
X286.47Y-50.45
X286.87Y-49.15
X287.67Y-32.45
X288.07Y-50.25
X288.27Y-83.35
X288.67Y-77.65
X288.74Y-24.69
X288.74Y-39.93
X288.74Y-60.25
X288.74Y-95.81
X288.74Y-98.35
X288.74Y-111.05
X288.74Y-121.21
X288.74Y-123.75
X288.74Y-126.29
X288.74Y-128.83
X290.77Y-115.65
X290.87Y-67.75
X291.28Y-24.69
X291.28Y-27.23
X291.28Y-37.39
X291.28Y-39.93
X291.28Y-50.09
X291.28Y-57.71
X291.28Y-60.25
X291.28Y-62.79
X291.28Y-121.21
X291.28Y-123.75
X291.28Y-126.29
X291.47Y-72.95
X291.97Y-95.95
X293.57Y-38.25
X293.82Y-90.73
X293.82Y-113.59
X293.82Y-121.21
X293.82Y-123.75
X293.82Y-126.29
X294.73Y-68.56
X296.012Y-83.3
X296.07Y-100.799
X296.36Y-111.05
X296.36Y-121.21
X296.36Y-123.75
X298.9Y-121.21
X300.67Y-105.55
X301.44Y-116.13
X303.98Y-108.51
X305.73Y-78.29
X306.52Y-105.97
X306.52Y-108.51
X309.06Y-108.51
X309.96Y-78.93
X310.25Y-84.04
X311.29Y-87.66
X317.37Y-93.59
X318.17Y-100.25
T2
X104.51Y-62.46
T3
X150.2Y-63.05
X152.69Y-68.91
T4
X72.71Y-63.92
X78.7Y-46.5
T5
X87.52Y-62.46
T6
X56.8Y-67.9
X56.9Y-70.2
X57.3Y-66.3
X58.0Y-68.9
T7
X32.07Y-67.61
X32.07Y-70.15
X32.07Y-72.69
X32.07Y-75.23
X32.07Y-77.77
X32.07Y-80.31
X32.07Y-82.85
X32.07Y-85.39
X32.07Y-87.93
X32.07Y-90.47
X32.07Y-93.01
X32.07Y-95.55
X32.07Y-98.09
X39.69Y-93.01
X42.23Y-93.01
X44.77Y-93.01
X47.31Y-67.61
X47.31Y-70.15
X47.31Y-72.69
X47.31Y-75.23
X47.31Y-77.77
X47.31Y-80.31
X47.31Y-82.85
X47.31Y-85.39
X47.31Y-87.93
X47.31Y-90.47
X47.31Y-93.01
X47.31Y-95.55
X47.31Y-98.09
X299.44Y-67.84
X299.44Y-70.38
X299.44Y-72.92
X299.44Y-75.46
X299.44Y-78.0
X299.44Y-80.54
X299.44Y-83.08
X299.44Y-85.62
X299.44Y-88.16
X299.44Y-90.7
X299.44Y-93.24
X299.44Y-95.78
X299.44Y-98.32
X307.06Y-93.24
X309.6Y-93.24
X312.14Y-93.24
X314.68Y-67.84
X314.68Y-70.38
X314.68Y-72.92
X314.68Y-75.46
X314.68Y-78.0
X314.68Y-80.54
X314.68Y-83.08
X314.68Y-85.62
X314.68Y-88.16
X314.68Y-90.7
X314.68Y-93.24
X314.68Y-95.78
X314.68Y-98.32
T8
X37.34Y-110.45
X44.5Y-67.8
X50.5Y-68.6
X75.5Y-47.4
X77.4Y-47.5
X78.9Y-45.1
X86.6Y-44.02
X267.77Y-43.45
X269.77Y-41.25
X271.87Y-41.55
T9
X31.5Y-108.2
X62.02Y-84.39
X293.661Y-72.459
X293.85Y-74.54
X293.85Y-76.28
T10
X40.959Y-109.059
X43.375Y-113.958
X59.237Y-38.25
X59.237Y-57.3
X59.237Y-76.35
X59.237Y-95.4
X64.237Y-40.45
X64.237Y-59.5
X64.237Y-78.55
X64.237Y-97.6
X78.1Y-124.75
X78.287Y-38.25
X78.287Y-57.3
X78.287Y-76.35
X78.287Y-95.4
X83.1Y-126.95
X83.287Y-40.45
X83.287Y-59.5
X83.287Y-78.55
X83.287Y-97.6
X97.337Y-37.25
X97.337Y-56.3
X97.337Y-75.35
X97.337Y-94.4
X102.337Y-39.45
X102.337Y-58.5
X102.337Y-77.55
X102.337Y-96.6
X105.811Y-117.116
X111.117Y-118.415
X116.387Y-35.75
X116.387Y-54.8
X116.387Y-73.85
X116.387Y-92.9
X121.387Y-37.95
X121.387Y-57.0
X121.387Y-76.05
X121.387Y-95.1
X135.437Y-37.25
X135.437Y-56.3
X135.437Y-75.35
X135.437Y-94.4
X140.437Y-39.45
X140.437Y-58.5
X140.437Y-77.55
X140.437Y-96.6
X154.487Y-39.25
X154.487Y-58.3
X154.487Y-77.35
X154.487Y-96.4
X159.487Y-41.45
X159.487Y-60.5
X159.487Y-79.55
X159.487Y-98.6
X182.345Y-39.225
X182.345Y-58.275
X182.345Y-77.325
X182.345Y-96.375
X187.345Y-41.425
X187.345Y-60.475
X187.345Y-79.525
X187.345Y-98.575
X201.395Y-37.225
X201.395Y-56.275
X201.395Y-75.325
X201.395Y-94.375
X206.395Y-39.425
X206.395Y-58.475
X206.395Y-77.525
X206.395Y-96.575
X220.445Y-35.725
X220.445Y-54.775
X220.445Y-73.825
X220.445Y-92.875
X225.445Y-37.925
X225.445Y-56.975
X225.445Y-76.025
X225.445Y-95.075
X231.331Y-115.293
X235.873Y-118.328
X239.495Y-37.225
X239.495Y-56.275
X239.495Y-75.325
X239.495Y-94.375
X244.495Y-39.425
X244.495Y-58.475
X244.495Y-77.525
X244.495Y-96.575
X258.545Y-38.225
X258.545Y-57.275
X258.545Y-76.325
X258.545Y-95.375
X258.89Y-124.663
X263.545Y-40.425
X263.545Y-59.475
X263.545Y-78.525
X263.545Y-97.575
X263.89Y-126.863
X277.595Y-38.225
X277.595Y-57.275
X277.595Y-76.325
X277.595Y-95.375
X282.595Y-40.425
X282.595Y-59.475
X282.595Y-78.525
X282.595Y-97.575
X298.37Y-115.4
X303.614Y-113.871
M30
