M48
; DRILL file {KiCad 9.0.0} date 2026-01-24T15:45:27+1100
; FORMAT={-:-/ absolute / metric / decimal}
; #@! TF.CreationDate,2026-01-24T15:45:27+11:00
; #@! TF.GenerationSoftware,Kicad,Pcbnew,9.0.0
; #@! TF.FileFunction,NonPlated,1,2,NPTH
FMAT,2
METRIC
; #@! TA.AperFunction,NonPlated,NPTH,ComponentDrill
T1C0.500
; #@! TA.AperFunction,NonPlated,NPTH,ComponentDrill
T2C1.700
; #@! TA.AperFunction,NonPlated,NPTH,ComponentDrill
T3C3.200
; #@! TA.AperFunction,NonPlated,NPTH,ComponentDrill
T4C3.400
%
G90
G05
T1
X171.82Y-58.574
X171.82Y-59.348
X171.82Y-60.098
X171.82Y-60.848
X171.82Y-61.61
X171.84Y-31.82
X171.84Y-32.594
X171.84Y-33.344
X171.84Y-34.094
X171.84Y-34.856
X171.91Y-92.266
X171.91Y-93.04
X171.91Y-93.79
X171.91Y-94.54
X171.91Y-95.302
X174.82Y-58.574
X174.82Y-59.348
X174.82Y-60.098
X174.82Y-60.86
X174.82Y-61.61
X174.84Y-31.82
X174.84Y-32.594
X174.84Y-33.344
X174.84Y-34.106
X174.84Y-34.856
X174.91Y-92.266
X174.91Y-93.04
X174.91Y-93.79
X174.91Y-94.552
X174.91Y-95.302
T2
X42.987Y-105.865
X51.413Y-112.935
X58.737Y-34.5
X58.737Y-53.55
X58.737Y-72.6
X58.737Y-91.65
X69.737Y-34.5
X69.737Y-53.55
X69.737Y-72.6
X69.737Y-91.65
X77.6Y-121.0
X77.787Y-34.5
X77.787Y-53.55
X77.787Y-72.6
X77.787Y-91.65
X88.6Y-121.0
X88.787Y-34.5
X88.787Y-53.55
X88.787Y-72.6
X88.787Y-91.65
X96.837Y-33.5
X96.837Y-52.55
X96.837Y-71.6
X96.837Y-90.65
X104.667Y-113.51
X107.837Y-33.5
X107.837Y-52.55
X107.837Y-71.6
X107.837Y-90.65
X115.5Y-111.6
X115.887Y-32.0
X115.887Y-51.05
X115.887Y-70.1
X115.887Y-89.15
X126.887Y-32.0
X126.887Y-51.05
X126.887Y-70.1
X126.887Y-89.15
X134.937Y-33.5
X134.937Y-52.55
X134.937Y-71.6
X134.937Y-90.65
X145.937Y-33.5
X145.937Y-52.55
X145.937Y-71.6
X145.937Y-90.65
X153.987Y-35.5
X153.987Y-54.55
X153.987Y-73.6
X153.987Y-92.65
X164.987Y-35.5
X164.987Y-54.55
X164.987Y-73.6
X164.987Y-92.65
X181.845Y-35.475
X181.845Y-54.525
X181.845Y-73.575
X181.845Y-92.625
X192.845Y-35.475
X192.845Y-54.525
X192.845Y-73.575
X192.845Y-92.625
X200.895Y-33.475
X200.895Y-52.525
X200.895Y-71.575
X200.895Y-90.625
X211.895Y-33.475
X211.895Y-52.525
X211.895Y-71.575
X211.895Y-90.625
X219.945Y-31.975
X219.945Y-51.025
X219.945Y-70.075
X219.945Y-89.125
X230.945Y-31.975
X230.945Y-51.025
X230.945Y-70.075
X230.945Y-89.125
X231.49Y-111.513
X238.995Y-33.475
X238.995Y-52.525
X238.995Y-71.575
X238.995Y-90.625
X242.323Y-113.424
X249.995Y-33.475
X249.995Y-52.525
X249.995Y-71.575
X249.995Y-90.625
X258.045Y-34.475
X258.045Y-53.525
X258.045Y-72.575
X258.045Y-91.625
X258.39Y-120.913
X269.045Y-34.475
X269.045Y-53.525
X269.045Y-72.575
X269.045Y-91.625
X269.39Y-120.913
X277.095Y-34.475
X277.095Y-53.525
X277.095Y-72.575
X277.095Y-91.625
X288.095Y-34.475
X288.095Y-53.525
X288.095Y-72.575
X288.095Y-91.625
X295.577Y-112.849
X304.003Y-105.778
T3
X62.4Y-124.4
X70.4Y-106.1
X73.5Y-23.6
X125.3Y-103.8
X168.3Y-24.2
X178.495Y-24.2
X221.66Y-103.63
X273.37Y-23.425
X276.61Y-105.96
X284.67Y-124.375
T4
X47.2Y-109.4
X64.237Y-34.5
X64.237Y-53.55
X64.237Y-72.6
X64.237Y-91.65
X83.1Y-121.0
X83.287Y-34.5
X83.287Y-53.55
X83.287Y-72.6
X83.287Y-91.65
X102.337Y-33.5
X102.337Y-52.55
X102.337Y-71.6
X102.337Y-90.65
X110.084Y-112.555
X121.387Y-32.0
X121.387Y-51.05
X121.387Y-70.1
X121.387Y-89.15
X140.437Y-33.5
X140.437Y-52.55
X140.437Y-71.6
X140.437Y-90.65
X159.487Y-35.5
X159.487Y-54.55
X159.487Y-73.6
X159.487Y-92.65
X187.345Y-35.475
X187.345Y-54.525
X187.345Y-73.575
X187.345Y-92.625
X206.395Y-33.475
X206.395Y-52.525
X206.395Y-71.575
X206.395Y-90.625
X225.445Y-31.975
X225.445Y-51.025
X225.445Y-70.075
X225.445Y-89.125
X236.906Y-112.468
X244.495Y-33.475
X244.495Y-52.525
X244.495Y-71.575
X244.495Y-90.625
X263.545Y-34.475
X263.545Y-53.525
X263.545Y-72.575
X263.545Y-91.625
X263.89Y-120.913
X282.595Y-34.475
X282.595Y-53.525
X282.595Y-72.575
X282.595Y-91.625
X299.79Y-109.313
M30
