%TF.GenerationSoftware,KiCad,Pcbnew,9.0.0*%
%TF.CreationDate,2026-01-24T15:45:23+11:00*%
%TF.ProjectId,Split Keyboard,53706c69-7420-44b6-9579-626f6172642e,rev?*%
%TF.SameCoordinates,Original*%
%TF.FileFunction,Paste,Top*%
%TF.FilePolarity,Positive*%
%FSLAX46Y46*%
G04 Gerber Fmt 4.6, Leading zero omitted, Abs format (unit mm)*
G04 Created by KiCad (PCBNEW 9.0.0) date 2026-01-24 15:45:23*
%MOMM*%
%LPD*%
G01*
G04 APERTURE LIST*
G04 Aperture macros list*
%AMRoundRect*
0 Rectangle with rounded corners*
0 $1 Rounding radius*
0 $2 $3 $4 $5 $6 $7 $8 $9 X,Y pos of 4 corners*
0 Add a 4 corners polygon primitive as box body*
4,1,4,$2,$3,$4,$5,$6,$7,$8,$9,$2,$3,0*
0 Add four circle primitives for the rounded corners*
1,1,$1+$1,$2,$3*
1,1,$1+$1,$4,$5*
1,1,$1+$1,$6,$7*
1,1,$1+$1,$8,$9*
0 Add four rect primitives between the rounded corners*
20,1,$1+$1,$2,$3,$4,$5,0*
20,1,$1+$1,$4,$5,$6,$7,0*
20,1,$1+$1,$6,$7,$8,$9,0*
20,1,$1+$1,$8,$9,$2,$3,0*%
G04 Aperture macros list end*
%ADD10RoundRect,0.250001X-1.099999X-3.499999X1.099999X-3.499999X1.099999X3.499999X-1.099999X3.499999X0*%
%ADD11RoundRect,0.250000X-0.450000X0.350000X-0.450000X-0.350000X0.450000X-0.350000X0.450000X0.350000X0*%
%ADD12RoundRect,0.250000X-0.475000X0.337500X-0.475000X-0.337500X0.475000X-0.337500X0.475000X0.337500X0*%
%ADD13RoundRect,0.250001X1.099999X3.499999X-1.099999X3.499999X-1.099999X-3.499999X1.099999X-3.499999X0*%
%ADD14RoundRect,0.250000X0.650000X-1.000000X0.650000X1.000000X-0.650000X1.000000X-0.650000X-1.000000X0*%
%ADD15RoundRect,0.250000X0.450000X-0.350000X0.450000X0.350000X-0.450000X0.350000X-0.450000X-0.350000X0*%
%ADD16RoundRect,0.250000X-0.337500X-0.475000X0.337500X-0.475000X0.337500X0.475000X-0.337500X0.475000X0*%
%ADD17RoundRect,0.250000X-0.350000X-0.450000X0.350000X-0.450000X0.350000X0.450000X-0.350000X0.450000X0*%
%ADD18RoundRect,0.150000X-0.512500X-0.150000X0.512500X-0.150000X0.512500X0.150000X-0.512500X0.150000X0*%
%ADD19RoundRect,0.150000X0.512500X0.150000X-0.512500X0.150000X-0.512500X-0.150000X0.512500X-0.150000X0*%
G04 APERTURE END LIST*
D10*
%TO.C,L2*%
X302620000Y-73300000D03*
X308420000Y-73300000D03*
%TD*%
D11*
%TO.C,R12*%
X311480000Y-82160000D03*
X311480000Y-84160000D03*
%TD*%
D12*
%TO.C,C5*%
X44100000Y-80862500D03*
X44100000Y-82937500D03*
%TD*%
D11*
%TO.C,R1*%
X52400000Y-85912500D03*
X52400000Y-87912500D03*
%TD*%
D12*
%TO.C,C8*%
X311330000Y-78292500D03*
X311330000Y-80367500D03*
%TD*%
D13*
%TO.C,L1*%
X44500000Y-73100000D03*
X38700000Y-73100000D03*
%TD*%
D11*
%TO.C,R3*%
X52400000Y-81100000D03*
X52400000Y-83100000D03*
%TD*%
D14*
%TO.C,D55*%
X35100000Y-75800000D03*
X35100000Y-71800000D03*
%TD*%
%TO.C,D56*%
X311920000Y-75860000D03*
X311920000Y-71860000D03*
%TD*%
D15*
%TO.C,R9*%
X37700000Y-82500000D03*
X37700000Y-80500000D03*
%TD*%
D16*
%TO.C,C7*%
X34862500Y-78500000D03*
X36937500Y-78500000D03*
%TD*%
D15*
%TO.C,R4*%
X292895000Y-82800000D03*
X292895000Y-80800000D03*
%TD*%
D17*
%TO.C,R11*%
X35300000Y-84500000D03*
X37300000Y-84500000D03*
%TD*%
D18*
%TO.C,U7*%
X39825000Y-78900000D03*
X39825000Y-79850000D03*
X39825000Y-80800000D03*
X42100000Y-80800000D03*
X42100000Y-79850000D03*
X42100000Y-78900000D03*
%TD*%
D12*
%TO.C,C6*%
X302090000Y-80062500D03*
X302090000Y-82137500D03*
%TD*%
D15*
%TO.C,R2*%
X292895000Y-87600000D03*
X292895000Y-85600000D03*
%TD*%
D19*
%TO.C,U8*%
X306627500Y-81010000D03*
X306627500Y-80060000D03*
X306627500Y-79110000D03*
X304352500Y-79110000D03*
X304352500Y-80060000D03*
X304352500Y-81010000D03*
%TD*%
D11*
%TO.C,R10*%
X308940000Y-79210000D03*
X308940000Y-81210000D03*
%TD*%
M02*
