%TF.GenerationSoftware,KiCad,Pcbnew,9.0.0*%
%TF.CreationDate,2026-01-24T15:45:23+11:00*%
%TF.ProjectId,Split Keyboard,53706c69-7420-44b6-9579-626f6172642e,rev?*%
%TF.SameCoordinates,Original*%
%TF.FileFunction,Soldermask,Bot*%
%TF.FilePolarity,Negative*%
%FSLAX46Y46*%
G04 Gerber Fmt 4.6, Leading zero omitted, Abs format (unit mm)*
G04 Created by KiCad (PCBNEW 9.0.0) date 2026-01-24 15:45:23*
%MOMM*%
%LPD*%
G01*
G04 APERTURE LIST*
G04 Aperture macros list*
%AMRoundRect*
0 Rectangle with rounded corners*
0 $1 Rounding radius*
0 $2 $3 $4 $5 $6 $7 $8 $9 X,Y pos of 4 corners*
0 Add a 4 corners polygon primitive as box body*
4,1,4,$2,$3,$4,$5,$6,$7,$8,$9,$2,$3,0*
0 Add four circle primitives for the rounded corners*
1,1,$1+$1,$2,$3*
1,1,$1+$1,$4,$5*
1,1,$1+$1,$6,$7*
1,1,$1+$1,$8,$9*
0 Add four rect primitives between the rounded corners*
20,1,$1+$1,$2,$3,$4,$5,0*
20,1,$1+$1,$4,$5,$6,$7,0*
20,1,$1+$1,$6,$7,$8,$9,0*
20,1,$1+$1,$8,$9,$2,$3,0*%
%AMFreePoly0*
4,1,18,-0.410000,0.593000,-0.403758,0.624380,-0.385983,0.650983,-0.359380,0.668758,-0.328000,0.675000,0.328000,0.675000,0.359380,0.668758,0.385983,0.650983,0.403758,0.624380,0.410000,0.593000,0.410000,-0.593000,0.403758,-0.624380,0.385983,-0.650983,0.359380,-0.668758,0.328000,-0.675000,0.000000,-0.675000,-0.410000,-0.265000,-0.410000,0.593000,-0.410000,0.593000,$1*%
G04 Aperture macros list end*
%ADD10C,3.200000*%
%ADD11C,0.500000*%
%ADD12RoundRect,0.250000X-0.475000X0.337500X-0.475000X-0.337500X0.475000X-0.337500X0.475000X0.337500X0*%
%ADD13C,1.700000*%
%ADD14C,3.400000*%
%ADD15C,3.300000*%
%ADD16RoundRect,0.260000X1.065000X1.040000X-1.065000X1.040000X-1.065000X-1.040000X1.065000X-1.040000X0*%
%ADD17RoundRect,0.150000X-0.512500X-0.150000X0.512500X-0.150000X0.512500X0.150000X-0.512500X0.150000X0*%
%ADD18RoundRect,0.082000X-0.593000X0.328000X-0.593000X-0.328000X0.593000X-0.328000X0.593000X0.328000X0*%
%ADD19FreePoly0,270.000000*%
%ADD20RoundRect,0.225000X-0.375000X0.225000X-0.375000X-0.225000X0.375000X-0.225000X0.375000X0.225000X0*%
%ADD21RoundRect,0.260000X0.868226X1.209135X-1.229414X0.839265X-0.868226X-1.209135X1.229414X-0.839265X0*%
%ADD22RoundRect,0.250000X0.475000X-0.337500X0.475000X0.337500X-0.475000X0.337500X-0.475000X-0.337500X0*%
%ADD23RoundRect,0.250000X0.337500X0.475000X-0.337500X0.475000X-0.337500X-0.475000X0.337500X-0.475000X0*%
%ADD24RoundRect,0.250000X0.450000X-0.350000X0.450000X0.350000X-0.450000X0.350000X-0.450000X-0.350000X0*%
%ADD25RoundRect,0.082000X0.593000X-0.328000X0.593000X0.328000X-0.593000X0.328000X-0.593000X-0.328000X0*%
%ADD26FreePoly0,90.000000*%
%ADD27RoundRect,0.225000X0.225000X0.375000X-0.225000X0.375000X-0.225000X-0.375000X0.225000X-0.375000X0*%
%ADD28C,2.000000*%
%ADD29RoundRect,0.260000X1.484336X0.112117X-0.147338X1.481255X-1.484336X-0.112117X0.147338X-1.481255X0*%
%ADD30RoundRect,0.082000X-0.527034X0.425990X-0.640948X-0.220044X0.527034X-0.425990X0.640948X0.220044X0*%
%ADD31FreePoly0,260.000000*%
%ADD32RoundRect,0.250000X0.550000X-1.500000X0.550000X1.500000X-0.550000X1.500000X-0.550000X-1.500000X0*%
%ADD33RoundRect,0.260000X1.229414X0.839265X-0.868226X1.209135X-1.229414X-0.839265X0.868226X-1.209135X0*%
%ADD34RoundRect,0.250000X0.350000X0.450000X-0.350000X0.450000X-0.350000X-0.450000X0.350000X-0.450000X0*%
%ADD35RoundRect,0.082000X-0.640948X0.220044X-0.527034X-0.425990X0.640948X-0.220044X0.527034X0.425990X0*%
%ADD36FreePoly0,280.000000*%
%ADD37RoundRect,0.260000X0.147338X1.481255X-1.484336X0.112117X-0.147338X-1.481255X1.484336X-0.112117X0*%
%ADD38RoundRect,0.250000X-0.350000X-0.450000X0.350000X-0.450000X0.350000X0.450000X-0.350000X0.450000X0*%
%ADD39RoundRect,0.082000X-0.243430X0.632436X-0.665099X0.129910X0.243430X-0.632436X0.665099X-0.129910X0*%
%ADD40FreePoly0,230.000000*%
%ADD41RoundRect,0.082000X-0.665099X-0.129910X-0.243430X-0.632436X0.665099X0.129910X0.243430X0.632436X0*%
%ADD42FreePoly0,310.000000*%
%ADD43RoundRect,0.250000X-1.500000X-0.550000X1.500000X-0.550000X1.500000X0.550000X-1.500000X0.550000X0*%
%ADD44RoundRect,0.150000X0.512500X0.150000X-0.512500X0.150000X-0.512500X-0.150000X0.512500X-0.150000X0*%
G04 APERTURE END LIST*
D10*
%TO.C,H11*%
X73500000Y-23600000D03*
%TD*%
%TO.C,H4*%
X276610000Y-105960000D03*
%TD*%
%TO.C,H9*%
X62400000Y-124400000D03*
%TD*%
D11*
%TO.C,H1*%
X171820000Y-61610000D03*
X174820000Y-61610000D03*
X174820000Y-60860000D03*
X171820000Y-60848000D03*
X171820000Y-60098000D03*
X174820000Y-60098000D03*
X171820000Y-59348000D03*
X174820000Y-59348000D03*
X171820000Y-58574000D03*
X174820000Y-58574000D03*
%TD*%
D10*
%TO.C,H3*%
X70400000Y-106100000D03*
%TD*%
%TO.C,H10*%
X178495000Y-24200000D03*
%TD*%
%TO.C,H5*%
X125300000Y-103800000D03*
%TD*%
%TO.C,H12*%
X221660000Y-103630000D03*
%TD*%
%TO.C,H7*%
X168300000Y-24200000D03*
%TD*%
%TO.C,H6*%
X273370000Y-23425000D03*
%TD*%
D11*
%TO.C,H2*%
X171910000Y-95302000D03*
X174910000Y-95302000D03*
X174910000Y-94552000D03*
X171910000Y-94540000D03*
X171910000Y-93790000D03*
X174910000Y-93790000D03*
X171910000Y-93040000D03*
X174910000Y-93040000D03*
X171910000Y-92266000D03*
X174910000Y-92266000D03*
%TD*%
%TO.C,H15*%
X171840000Y-34856000D03*
X174840000Y-34856000D03*
X174840000Y-34106000D03*
X171840000Y-34094000D03*
X171840000Y-33344000D03*
X174840000Y-33344000D03*
X171840000Y-32594000D03*
X174840000Y-32594000D03*
X171840000Y-31820000D03*
X174840000Y-31820000D03*
%TD*%
D10*
%TO.C,H8*%
X284670000Y-124375000D03*
%TD*%
D12*
%TO.C,C30*%
X211570000Y-65850000D03*
X211570000Y-67925000D03*
%TD*%
D13*
%TO.C,SW31*%
X107837218Y-90650000D03*
D14*
X102337218Y-90650000D03*
D13*
X96837218Y-90650000D03*
D15*
X97337218Y-94400000D03*
D16*
X94092218Y-94400000D03*
X105582218Y-96600000D03*
D15*
X102337218Y-96600000D03*
%TD*%
D17*
%TO.C,U6*%
X270407500Y-45225000D03*
X270407500Y-44275000D03*
X270407500Y-43325000D03*
X272682500Y-43325000D03*
X272682500Y-44275000D03*
X272682500Y-45225000D03*
%TD*%
D18*
%TO.C,LED26*%
X86012218Y-68650000D03*
X86012218Y-67150000D03*
X80562218Y-68650000D03*
D19*
X80562218Y-67150000D03*
%TD*%
D20*
%TO.C,D8*%
X253945000Y-29450000D03*
X253945000Y-32750000D03*
%TD*%
D18*
%TO.C,LED3*%
X86012218Y-30550000D03*
X86012218Y-29050000D03*
X80562218Y-30550000D03*
D19*
X80562218Y-29050000D03*
%TD*%
D12*
%TO.C,C36*%
X89270000Y-67130000D03*
X89270000Y-69205000D03*
%TD*%
D20*
%TO.C,D12*%
X291320000Y-32675000D03*
X291320000Y-35975000D03*
%TD*%
D12*
%TO.C,C28*%
X249670000Y-65750000D03*
X249670000Y-67825000D03*
%TD*%
D13*
%TO.C,SW3*%
X145937218Y-33500000D03*
D14*
X140437218Y-33500000D03*
D13*
X134937218Y-33500000D03*
D15*
X135437218Y-37250000D03*
D16*
X132192218Y-37250000D03*
X143682218Y-39450000D03*
D15*
X140437218Y-39450000D03*
%TD*%
D13*
%TO.C,SW35*%
X69737218Y-91650000D03*
D14*
X64237218Y-91650000D03*
D13*
X58737218Y-91650000D03*
D15*
X59237218Y-95400000D03*
D16*
X55992218Y-95400000D03*
X67482218Y-97600000D03*
D15*
X64237218Y-97600000D03*
%TD*%
D12*
%TO.C,C42*%
X287870000Y-66850000D03*
X287870000Y-68925000D03*
%TD*%
%TO.C,C39*%
X269870000Y-115250000D03*
X269870000Y-117325000D03*
%TD*%
%TO.C,C61*%
X127460000Y-26142500D03*
X127460000Y-28217500D03*
%TD*%
%TO.C,C66*%
X230770000Y-64450000D03*
X230770000Y-66525000D03*
%TD*%
D20*
%TO.C,D21*%
X234620000Y-45300000D03*
X234620000Y-48600000D03*
%TD*%
D13*
%TO.C,SW45*%
X269045000Y-91625000D03*
D14*
X263545000Y-91625000D03*
D13*
X258045000Y-91625000D03*
D15*
X258545000Y-95375000D03*
D16*
X255300000Y-95375000D03*
X266790000Y-97575000D03*
D15*
X263545000Y-97575000D03*
%TD*%
D13*
%TO.C,SW53*%
X115500000Y-111600000D03*
D14*
X110083558Y-112555065D03*
D13*
X104667116Y-113510130D03*
D15*
X105810700Y-117116335D03*
D21*
X102614999Y-117679823D03*
X114312465Y-117851182D03*
D15*
X111116765Y-118414671D03*
%TD*%
D12*
%TO.C,C56*%
X269470000Y-66775000D03*
X269470000Y-68850000D03*
%TD*%
D13*
%TO.C,SW19*%
X192845000Y-54525000D03*
D14*
X187345000Y-54525000D03*
D13*
X181845000Y-54525000D03*
D15*
X182345000Y-58275000D03*
D16*
X179100000Y-58275000D03*
X190590000Y-60475000D03*
D15*
X187345000Y-60475000D03*
%TD*%
D12*
%TO.C,C25*%
X146550000Y-46745000D03*
X146550000Y-48820000D03*
%TD*%
D20*
%TO.C,D27*%
X150000000Y-86050000D03*
X150000000Y-89350000D03*
%TD*%
D22*
%TO.C,C41*%
X200970000Y-86450000D03*
X200970000Y-84375000D03*
%TD*%
%TO.C,C11*%
X146460000Y-87195000D03*
X146460000Y-85120000D03*
%TD*%
D13*
%TO.C,SW34*%
X88787218Y-72600000D03*
D14*
X83287218Y-72600000D03*
D13*
X77787218Y-72600000D03*
D15*
X78287218Y-76350000D03*
D16*
X75042218Y-76350000D03*
X86532218Y-78550000D03*
D15*
X83287218Y-78550000D03*
%TD*%
D20*
%TO.C,D19*%
X196570000Y-48900000D03*
X196570000Y-52200000D03*
%TD*%
D23*
%TO.C,C53*%
X304007500Y-102450000D03*
X301932500Y-102450000D03*
%TD*%
D20*
%TO.C,D52*%
X269170000Y-104800000D03*
X269170000Y-108100000D03*
%TD*%
D13*
%TO.C,SW12*%
X288095000Y-34475000D03*
D14*
X282595000Y-34475000D03*
D13*
X277095000Y-34475000D03*
D15*
X277595000Y-38225000D03*
D16*
X274350000Y-38225000D03*
X285840000Y-40425000D03*
D15*
X282595000Y-40425000D03*
%TD*%
D24*
%TO.C,R8*%
X275270000Y-45575000D03*
X275270000Y-43575000D03*
%TD*%
D13*
%TO.C,SW27*%
X145937218Y-90650000D03*
D14*
X140437218Y-90650000D03*
D13*
X134937218Y-90650000D03*
D15*
X135437218Y-94400000D03*
D16*
X132192218Y-94400000D03*
X143682218Y-96600000D03*
D15*
X140437218Y-96600000D03*
%TD*%
D13*
%TO.C,SW47*%
X288095000Y-91625000D03*
D14*
X282595000Y-91625000D03*
D13*
X277095000Y-91625000D03*
D15*
X277595000Y-95375000D03*
D16*
X274350000Y-95375000D03*
X285840000Y-97575000D03*
D15*
X282595000Y-97575000D03*
%TD*%
D13*
%TO.C,SW32*%
X107837218Y-71600000D03*
D14*
X102337218Y-71600000D03*
D13*
X96837218Y-71600000D03*
D15*
X97337218Y-75350000D03*
D16*
X94092218Y-75350000D03*
X105582218Y-77550000D03*
D15*
X102337218Y-77550000D03*
%TD*%
D25*
%TO.C,LED45*%
X222720000Y-83675000D03*
X222720000Y-85175000D03*
X228170000Y-83675000D03*
D26*
X228170000Y-85175000D03*
%TD*%
D25*
%TO.C,LED40*%
X118662218Y-83700000D03*
X118662218Y-85200000D03*
X124112218Y-83700000D03*
D26*
X124112218Y-85200000D03*
%TD*%
D20*
%TO.C,D23*%
X272820000Y-51700000D03*
X272820000Y-55000000D03*
%TD*%
%TO.C,D34*%
X92600000Y-68450000D03*
X92600000Y-71750000D03*
%TD*%
D12*
%TO.C,C49*%
X164840000Y-29615000D03*
X164840000Y-31690000D03*
%TD*%
D18*
%TO.C,LED9*%
X143162218Y-29550000D03*
X143162218Y-28050000D03*
X137712218Y-29550000D03*
D19*
X137712218Y-28050000D03*
%TD*%
D27*
%TO.C,D49*%
X56450000Y-118200000D03*
X53150000Y-118200000D03*
%TD*%
D28*
%TO.C,TP3*%
X58100000Y-48150000D03*
%TD*%
D25*
%TO.C,LED20*%
X203670000Y-47075000D03*
X203670000Y-48575000D03*
X209120000Y-47075000D03*
D26*
X209120000Y-48575000D03*
%TD*%
D25*
%TO.C,LED47*%
X260820000Y-86175000D03*
X260820000Y-87675000D03*
X266270000Y-86175000D03*
D26*
X266270000Y-87675000D03*
%TD*%
D13*
%TO.C,SW9*%
X88787218Y-34500000D03*
D14*
X83287218Y-34500000D03*
D13*
X77787218Y-34500000D03*
D15*
X78287218Y-38250000D03*
D16*
X75042218Y-38250000D03*
X86532218Y-40450000D03*
D15*
X83287218Y-40450000D03*
%TD*%
D12*
%TO.C,C51*%
X192670000Y-67750000D03*
X192670000Y-69825000D03*
%TD*%
D18*
%TO.C,LED1*%
X66962218Y-30550000D03*
X66962218Y-29050000D03*
X61512218Y-30550000D03*
D19*
X61512218Y-29050000D03*
%TD*%
D13*
%TO.C,SW49*%
X51413245Y-112935332D03*
D14*
X47200000Y-109400000D03*
D13*
X42986755Y-105864668D03*
D15*
X40959324Y-109058730D03*
D29*
X38473510Y-106972881D03*
X45861229Y-116043810D03*
D15*
X43375414Y-113957965D03*
%TD*%
D18*
%TO.C,LED36*%
X285320000Y-68625000D03*
X285320000Y-67125000D03*
X279870000Y-68625000D03*
D19*
X279870000Y-67125000D03*
%TD*%
D13*
%TO.C,SW17*%
X88787218Y-53550000D03*
D14*
X83287218Y-53550000D03*
D13*
X77787218Y-53550000D03*
D15*
X78287218Y-57300000D03*
D16*
X75042218Y-57300000D03*
X86532218Y-59500000D03*
D15*
X83287218Y-59500000D03*
%TD*%
D18*
%TO.C,LED7*%
X124112218Y-28050000D03*
X124112218Y-26550000D03*
X118662218Y-28050000D03*
D19*
X118662218Y-26550000D03*
%TD*%
D17*
%TO.C,U4*%
X277795000Y-45550000D03*
X277795000Y-44600000D03*
X277795000Y-43650000D03*
X280070000Y-43650000D03*
X280070000Y-44600000D03*
X280070000Y-45550000D03*
%TD*%
D20*
%TO.C,D42*%
X234720000Y-65350000D03*
X234720000Y-68650000D03*
%TD*%
D18*
%TO.C,LED32*%
X209120000Y-67625000D03*
X209120000Y-66125000D03*
X203670000Y-67625000D03*
D19*
X203670000Y-66125000D03*
%TD*%
D12*
%TO.C,C38*%
X127380000Y-64115000D03*
X127380000Y-66190000D03*
%TD*%
D20*
%TO.C,D30*%
X130600000Y-67050000D03*
X130600000Y-70350000D03*
%TD*%
%TO.C,D14*%
X149600000Y-49450000D03*
X149600000Y-52750000D03*
%TD*%
%TO.C,D26*%
X168200000Y-70550000D03*
X168200000Y-73850000D03*
%TD*%
D30*
%TO.C,LED58*%
X240276730Y-109048594D03*
X240537202Y-107571382D03*
X234909528Y-108102212D03*
D31*
X235170000Y-106625000D03*
%TD*%
D22*
%TO.C,C27*%
X181770000Y-88550000D03*
X181770000Y-86475000D03*
%TD*%
D13*
%TO.C,SW29*%
X126887218Y-89150000D03*
D14*
X121387218Y-89150000D03*
D13*
X115887218Y-89150000D03*
D15*
X116387218Y-92900000D03*
D16*
X113142218Y-92900000D03*
X124632218Y-95100000D03*
D15*
X121387218Y-95100000D03*
%TD*%
D18*
%TO.C,LED25*%
X66962218Y-68650000D03*
X66962218Y-67150000D03*
X61512218Y-68650000D03*
D19*
X61512218Y-67150000D03*
%TD*%
D13*
%TO.C,SW44*%
X249995000Y-71575000D03*
D14*
X244495000Y-71575000D03*
D13*
X238995000Y-71575000D03*
D15*
X239495000Y-75325000D03*
D16*
X236250000Y-75325000D03*
X247740000Y-77525000D03*
D15*
X244495000Y-77525000D03*
%TD*%
D32*
%TO.C,C57*%
X56320000Y-32050000D03*
X56320000Y-26650000D03*
%TD*%
D12*
%TO.C,C2*%
X276495000Y-47675000D03*
X276495000Y-49750000D03*
%TD*%
%TO.C,C32*%
X230670000Y-26250000D03*
X230670000Y-28325000D03*
%TD*%
D18*
%TO.C,LED11*%
X162212218Y-31550000D03*
X162212218Y-30050000D03*
X156762218Y-31550000D03*
D19*
X156762218Y-30050000D03*
%TD*%
D13*
%TO.C,SW54*%
X242322654Y-113423525D03*
D14*
X236906211Y-112468460D03*
D13*
X231489768Y-111513395D03*
D15*
X231330992Y-115293248D03*
D33*
X228135290Y-114729760D03*
X239068706Y-118891552D03*
D15*
X235873004Y-118328066D03*
%TD*%
D13*
%TO.C,SW14*%
X145937218Y-52550000D03*
D14*
X140437218Y-52550000D03*
D13*
X134937218Y-52550000D03*
D15*
X135437218Y-56300000D03*
D16*
X132192218Y-56300000D03*
X143682218Y-58500000D03*
D15*
X140437218Y-58500000D03*
%TD*%
D25*
%TO.C,LED44*%
X203670000Y-85175000D03*
X203670000Y-86675000D03*
X209120000Y-85175000D03*
D26*
X209120000Y-86675000D03*
%TD*%
D13*
%TO.C,SW4*%
X211895000Y-33475000D03*
D14*
X206395000Y-33475000D03*
D13*
X200895000Y-33475000D03*
D15*
X201395000Y-37225000D03*
D16*
X198150000Y-37225000D03*
X209640000Y-39425000D03*
D15*
X206395000Y-39425000D03*
%TD*%
D22*
%TO.C,C15*%
X165140000Y-88957500D03*
X165140000Y-86882500D03*
%TD*%
D13*
%TO.C,SW1*%
X164987218Y-35500000D03*
D14*
X159487218Y-35500000D03*
D13*
X153987218Y-35500000D03*
D15*
X154487218Y-39250000D03*
D16*
X151242218Y-39250000D03*
X162732218Y-41450000D03*
D15*
X159487218Y-41450000D03*
%TD*%
D20*
%TO.C,D44*%
X253895000Y-67400000D03*
X253895000Y-70700000D03*
%TD*%
D12*
%TO.C,C9*%
X70200000Y-28852500D03*
X70200000Y-30927500D03*
%TD*%
D20*
%TO.C,D15*%
X130500000Y-47650000D03*
X130500000Y-50950000D03*
%TD*%
D13*
%TO.C,SW18*%
X69737218Y-53550000D03*
D14*
X64237218Y-53550000D03*
D13*
X58737218Y-53550000D03*
D15*
X59237218Y-57300000D03*
D16*
X55992218Y-57300000D03*
X67482218Y-59500000D03*
D15*
X64237218Y-59500000D03*
%TD*%
D22*
%TO.C,C22*%
X89480000Y-49940000D03*
X89480000Y-47865000D03*
%TD*%
%TO.C,C67*%
X239470000Y-48850000D03*
X239470000Y-46775000D03*
%TD*%
D20*
%TO.C,D22*%
X253495000Y-48675000D03*
X253495000Y-51975000D03*
%TD*%
D25*
%TO.C,LED48*%
X279870000Y-86175000D03*
X279870000Y-87675000D03*
X285320000Y-86175000D03*
D26*
X285320000Y-87675000D03*
%TD*%
D13*
%TO.C,SW13*%
X164987218Y-54550000D03*
D14*
X159487218Y-54550000D03*
D13*
X153987218Y-54550000D03*
D15*
X154487218Y-58300000D03*
D16*
X151242218Y-58300000D03*
X162732218Y-60500000D03*
D15*
X159487218Y-60500000D03*
%TD*%
D34*
%TO.C,R6*%
X284695000Y-43875000D03*
X282695000Y-43875000D03*
%TD*%
D13*
%TO.C,SW26*%
X164987218Y-73600000D03*
D14*
X159487218Y-73600000D03*
D13*
X153987218Y-73600000D03*
D15*
X154487218Y-77350000D03*
D16*
X151242218Y-77350000D03*
X162732218Y-79550000D03*
D15*
X159487218Y-79550000D03*
%TD*%
D20*
%TO.C,D51*%
X86600000Y-103700000D03*
X86600000Y-107000000D03*
%TD*%
%TO.C,D39*%
X215995000Y-84475000D03*
X215995000Y-87775000D03*
%TD*%
D18*
%TO.C,LED28*%
X124112218Y-66150000D03*
X124112218Y-64650000D03*
X118662218Y-66150000D03*
D19*
X118662218Y-64650000D03*
%TD*%
D12*
%TO.C,C68*%
X192370000Y-29812500D03*
X192370000Y-31887500D03*
%TD*%
%TO.C,C60*%
X107990000Y-27752500D03*
X107990000Y-29827500D03*
%TD*%
D20*
%TO.C,D37*%
X196795000Y-85100000D03*
X196795000Y-88400000D03*
%TD*%
%TO.C,D33*%
X92300000Y-86750000D03*
X92300000Y-90050000D03*
%TD*%
D22*
%TO.C,C20*%
X258270000Y-87250000D03*
X258270000Y-85175000D03*
%TD*%
D35*
%TO.C,LED54*%
X112073837Y-108225415D03*
X111813365Y-106748203D03*
X106706635Y-109171797D03*
D36*
X106446163Y-107694585D03*
%TD*%
D20*
%TO.C,D24*%
X290670000Y-52200000D03*
X290670000Y-55500000D03*
%TD*%
D13*
%TO.C,SW43*%
X249995000Y-90625000D03*
D14*
X244495000Y-90625000D03*
D13*
X238995000Y-90625000D03*
D15*
X239495000Y-94375000D03*
D16*
X236250000Y-94375000D03*
X247740000Y-96575000D03*
D15*
X244495000Y-96575000D03*
%TD*%
D12*
%TO.C,C52*%
X211470000Y-27750000D03*
X211470000Y-29825000D03*
%TD*%
D20*
%TO.C,D50*%
X285770000Y-103900000D03*
X285770000Y-107200000D03*
%TD*%
%TO.C,D31*%
X111600000Y-85250000D03*
X111600000Y-88550000D03*
%TD*%
D12*
%TO.C,C3*%
X54670000Y-44292500D03*
X54670000Y-46367500D03*
%TD*%
D20*
%TO.C,D54*%
X249870000Y-104825000D03*
X249870000Y-108125000D03*
%TD*%
D13*
%TO.C,SW50*%
X304003013Y-105778063D03*
D14*
X299789769Y-109313395D03*
D13*
X295576525Y-112848727D03*
D15*
X298370000Y-115400000D03*
D37*
X295884186Y-117485846D03*
X306100169Y-111785514D03*
D15*
X303614355Y-113871359D03*
%TD*%
D18*
%TO.C,LED6*%
X228170000Y-28025000D03*
X228170000Y-26525000D03*
X222720000Y-28025000D03*
D19*
X222720000Y-26525000D03*
%TD*%
D34*
%TO.C,R14*%
X186670000Y-27275000D03*
X184670000Y-27275000D03*
%TD*%
D18*
%TO.C,LED33*%
X228170000Y-66125000D03*
X228170000Y-64625000D03*
X222720000Y-66125000D03*
D19*
X222720000Y-64625000D03*
%TD*%
D12*
%TO.C,C23*%
X69350000Y-67160000D03*
X69350000Y-69235000D03*
%TD*%
D13*
%TO.C,SW41*%
X230945000Y-89125000D03*
D14*
X225445000Y-89125000D03*
D13*
X219945000Y-89125000D03*
D15*
X220445000Y-92875000D03*
D16*
X217200000Y-92875000D03*
X228690000Y-95075000D03*
D15*
X225445000Y-95075000D03*
%TD*%
D20*
%TO.C,D53*%
X96900000Y-103700000D03*
X96900000Y-107000000D03*
%TD*%
D25*
%TO.C,LED43*%
X184620000Y-87175000D03*
X184620000Y-88675000D03*
X190070000Y-87175000D03*
D26*
X190070000Y-88675000D03*
%TD*%
D13*
%TO.C,SW25*%
X164987218Y-92650000D03*
D14*
X159487218Y-92650000D03*
D13*
X153987218Y-92650000D03*
D15*
X154487218Y-96400000D03*
D16*
X151242218Y-96400000D03*
X162732218Y-98600000D03*
D15*
X159487218Y-98600000D03*
%TD*%
D20*
%TO.C,D40*%
X215820000Y-66150000D03*
X215820000Y-69450000D03*
%TD*%
D13*
%TO.C,SW36*%
X69737218Y-72600000D03*
D14*
X64237218Y-72600000D03*
D13*
X58737218Y-72600000D03*
D15*
X59237218Y-76350000D03*
D16*
X55992218Y-76350000D03*
X67482218Y-78550000D03*
D15*
X64237218Y-78550000D03*
%TD*%
D22*
%TO.C,C29*%
X257570000Y-49350000D03*
X257570000Y-47275000D03*
%TD*%
D23*
%TO.C,C34*%
X56370000Y-109350000D03*
X54295000Y-109350000D03*
%TD*%
D28*
%TO.C,TP1*%
X58100000Y-44100000D03*
%TD*%
D25*
%TO.C,LED21*%
X222720000Y-45575000D03*
X222720000Y-47075000D03*
X228170000Y-45575000D03*
D26*
X228170000Y-47075000D03*
%TD*%
D20*
%TO.C,D35*%
X73530000Y-86570000D03*
X73530000Y-89870000D03*
%TD*%
%TO.C,D43*%
X254145000Y-84450000D03*
X254145000Y-87750000D03*
%TD*%
D22*
%TO.C,C55*%
X220070000Y-85150000D03*
X220070000Y-83075000D03*
%TD*%
D13*
%TO.C,SW42*%
X230945000Y-70075000D03*
D14*
X225445000Y-70075000D03*
D13*
X219945000Y-70075000D03*
D15*
X220445000Y-73825000D03*
D16*
X217200000Y-73825000D03*
X228690000Y-76025000D03*
D15*
X225445000Y-76025000D03*
%TD*%
D13*
%TO.C,SW7*%
X230945000Y-31975000D03*
D14*
X225445000Y-31975000D03*
D13*
X219945000Y-31975000D03*
D15*
X220445000Y-35725000D03*
D16*
X217200000Y-35725000D03*
X228690000Y-37925000D03*
D15*
X225445000Y-37925000D03*
%TD*%
D13*
%TO.C,SW52*%
X269389769Y-120913395D03*
D14*
X263889769Y-120913395D03*
D13*
X258389769Y-120913395D03*
D15*
X258889769Y-124663395D03*
D16*
X255644769Y-124663395D03*
X267134768Y-126863395D03*
D15*
X263889769Y-126863394D03*
%TD*%
D12*
%TO.C,C14*%
X268970000Y-28950000D03*
X268970000Y-31025000D03*
%TD*%
D13*
%TO.C,SW37*%
X192845000Y-92625000D03*
D14*
X187345000Y-92625000D03*
D13*
X181845000Y-92625000D03*
D15*
X182345000Y-96375000D03*
D16*
X179100000Y-96375000D03*
X190590000Y-98575000D03*
D15*
X187345000Y-98575000D03*
%TD*%
D28*
%TO.C,TP2*%
X288845000Y-44025000D03*
%TD*%
D13*
%TO.C,SW24*%
X288095000Y-53525000D03*
D14*
X282595000Y-53525000D03*
D13*
X277095000Y-53525000D03*
D15*
X277595000Y-57275000D03*
D16*
X274350000Y-57275000D03*
X285840000Y-59475000D03*
D15*
X282595000Y-59475000D03*
%TD*%
D13*
%TO.C,SW20*%
X211895000Y-52525000D03*
D14*
X206395000Y-52525000D03*
D13*
X200895000Y-52525000D03*
D15*
X201395000Y-56275000D03*
D16*
X198150000Y-56275000D03*
X209640000Y-58475000D03*
D15*
X206395000Y-58475000D03*
%TD*%
D12*
%TO.C,C16*%
X249670000Y-27812500D03*
X249670000Y-29887500D03*
%TD*%
D20*
%TO.C,D13*%
X168500000Y-49650000D03*
X168500000Y-52950000D03*
%TD*%
D25*
%TO.C,LED46*%
X241770000Y-85175000D03*
X241770000Y-86675000D03*
X247220000Y-85175000D03*
D26*
X247220000Y-86675000D03*
%TD*%
D12*
%TO.C,C33*%
X115610000Y-105115000D03*
X115610000Y-107190000D03*
%TD*%
D20*
%TO.C,D48*%
X290870000Y-66600000D03*
X290870000Y-69900000D03*
%TD*%
D25*
%TO.C,LED37*%
X61512218Y-86200000D03*
X61512218Y-87700000D03*
X66962218Y-86200000D03*
D26*
X66962218Y-87700000D03*
%TD*%
D25*
%TO.C,LED17*%
X137712218Y-47100000D03*
X137712218Y-48600000D03*
X143162218Y-47100000D03*
D26*
X143162218Y-48600000D03*
%TD*%
D20*
%TO.C,D6*%
X111600000Y-28150000D03*
X111600000Y-31450000D03*
%TD*%
D25*
%TO.C,LED24*%
X279870000Y-48075000D03*
X279870000Y-49575000D03*
X285320000Y-48075000D03*
D26*
X285320000Y-49575000D03*
%TD*%
D20*
%TO.C,D47*%
X288670000Y-85400000D03*
X288670000Y-88700000D03*
%TD*%
D22*
%TO.C,C45*%
X108180000Y-86975000D03*
X108180000Y-84900000D03*
%TD*%
D13*
%TO.C,SW11*%
X269045000Y-34475000D03*
D14*
X263545000Y-34475000D03*
D13*
X258045000Y-34475000D03*
D15*
X258545000Y-38225000D03*
D16*
X255300000Y-38225000D03*
X266790000Y-40425000D03*
D15*
X263545000Y-40425000D03*
%TD*%
D25*
%TO.C,LED42*%
X156762218Y-87200000D03*
X156762218Y-88700000D03*
X162212218Y-87200000D03*
D26*
X162212218Y-88700000D03*
%TD*%
D18*
%TO.C,LED2*%
X190070000Y-31525000D03*
X190070000Y-30025000D03*
X184620000Y-31525000D03*
D19*
X184620000Y-30025000D03*
%TD*%
D18*
%TO.C,LED30*%
X162212218Y-69650000D03*
X162212218Y-68150000D03*
X156762218Y-69650000D03*
D19*
X156762218Y-68150000D03*
%TD*%
D20*
%TO.C,D5*%
X130600000Y-28450000D03*
X130600000Y-31750000D03*
%TD*%
D12*
%TO.C,C50*%
X146560000Y-27920000D03*
X146560000Y-29995000D03*
%TD*%
D18*
%TO.C,LED35*%
X266270000Y-68625000D03*
X266270000Y-67125000D03*
X260820000Y-68625000D03*
D19*
X260820000Y-67125000D03*
%TD*%
D18*
%TO.C,LED10*%
X266270000Y-30525000D03*
X266270000Y-29025000D03*
X260820000Y-30525000D03*
D19*
X260820000Y-29025000D03*
%TD*%
D22*
%TO.C,C43*%
X285770000Y-54450000D03*
X285770000Y-52375000D03*
%TD*%
D38*
%TO.C,R5*%
X62300000Y-44170000D03*
X64300000Y-44170000D03*
%TD*%
D20*
%TO.C,D38*%
X196845000Y-66250000D03*
X196845000Y-69550000D03*
%TD*%
D13*
%TO.C,SW6*%
X107837218Y-33500000D03*
D14*
X102337218Y-33500000D03*
D13*
X96837218Y-33500000D03*
D15*
X97337218Y-37250000D03*
D16*
X94092218Y-37250000D03*
X105582218Y-39450000D03*
D15*
X102337218Y-39450000D03*
%TD*%
D13*
%TO.C,SW2*%
X192845000Y-35475000D03*
D14*
X187345000Y-35475000D03*
D13*
X181845000Y-35475000D03*
D15*
X182345000Y-39225000D03*
D16*
X179100000Y-39225000D03*
X190590000Y-41425000D03*
D15*
X187345000Y-41425000D03*
%TD*%
D25*
%TO.C,LED39*%
X99612218Y-85240000D03*
X99612218Y-86740000D03*
X105062218Y-85240000D03*
D26*
X105062218Y-86740000D03*
%TD*%
D24*
%TO.C,R7*%
X70510000Y-49970000D03*
X70510000Y-47970000D03*
%TD*%
D18*
%TO.C,LED31*%
X190070000Y-69625000D03*
X190070000Y-68125000D03*
X184620000Y-69625000D03*
D19*
X184620000Y-68125000D03*
%TD*%
D20*
%TO.C,D3*%
X149500000Y-29550000D03*
X149500000Y-32850000D03*
%TD*%
D12*
%TO.C,C24*%
X107830000Y-65490000D03*
X107830000Y-67565000D03*
%TD*%
D13*
%TO.C,SW22*%
X249995000Y-52525000D03*
D14*
X244495000Y-52525000D03*
D13*
X238995000Y-52525000D03*
D15*
X239495000Y-56275000D03*
D16*
X236250000Y-56275000D03*
X247740000Y-58475000D03*
D15*
X244495000Y-58475000D03*
%TD*%
D39*
%TO.C,LED52*%
X51835381Y-108116130D03*
X52799562Y-106967062D03*
X47660438Y-104612938D03*
D40*
X48624619Y-103463870D03*
%TD*%
D20*
%TO.C,D20*%
X215595000Y-46475000D03*
X215595000Y-49775000D03*
%TD*%
D13*
%TO.C,SW51*%
X88600000Y-121000000D03*
D14*
X83100000Y-121000000D03*
D13*
X77600000Y-121000000D03*
D15*
X78100000Y-124750000D03*
D16*
X74855000Y-124750000D03*
X86345000Y-126950000D03*
D15*
X83100000Y-126950000D03*
%TD*%
D18*
%TO.C,LED29*%
X143162218Y-67650000D03*
X143162218Y-66150000D03*
X137712218Y-67650000D03*
D19*
X137712218Y-66150000D03*
%TD*%
D13*
%TO.C,SW30*%
X126887218Y-70100000D03*
D14*
X121387218Y-70100000D03*
D13*
X115887218Y-70100000D03*
D15*
X116387218Y-73850000D03*
D16*
X113142218Y-73850000D03*
X124632218Y-76050000D03*
D15*
X121387218Y-76050000D03*
%TD*%
D13*
%TO.C,SW5*%
X126887218Y-32000000D03*
D14*
X121387218Y-32000000D03*
D13*
X115887218Y-32000000D03*
D15*
X116387218Y-35750000D03*
D16*
X113142218Y-35750000D03*
X124632218Y-37950000D03*
D15*
X121387218Y-37950000D03*
%TD*%
D41*
%TO.C,LED60*%
X299334124Y-104545876D03*
X298369943Y-103396808D03*
X295159181Y-108049068D03*
D42*
X294195000Y-106900000D03*
%TD*%
D20*
%TO.C,D2*%
X197320000Y-31000000D03*
X197320000Y-34300000D03*
%TD*%
D13*
%TO.C,SW39*%
X211895000Y-90625000D03*
D14*
X206395000Y-90625000D03*
D13*
X200895000Y-90625000D03*
D15*
X201395000Y-94375000D03*
D16*
X198150000Y-94375000D03*
X209640000Y-96575000D03*
D15*
X206395000Y-96575000D03*
%TD*%
D13*
%TO.C,SW40*%
X211895000Y-71575000D03*
D14*
X206395000Y-71575000D03*
D13*
X200895000Y-71575000D03*
D15*
X201395000Y-75325000D03*
D16*
X198150000Y-75325000D03*
X209640000Y-77525000D03*
D15*
X206395000Y-77525000D03*
%TD*%
D25*
%TO.C,LED38*%
X80562218Y-86200000D03*
X80562218Y-87700000D03*
X86012218Y-86200000D03*
D26*
X86012218Y-87700000D03*
%TD*%
D38*
%TO.C,R13*%
X61540000Y-26320000D03*
X63540000Y-26320000D03*
%TD*%
D18*
%TO.C,LED5*%
X105062218Y-29550000D03*
X105062218Y-28050000D03*
X99612218Y-29550000D03*
D19*
X99612218Y-28050000D03*
%TD*%
D12*
%TO.C,C17*%
X89940000Y-115235000D03*
X89940000Y-117310000D03*
%TD*%
D13*
%TO.C,SW8*%
X249995000Y-33475000D03*
D14*
X244495000Y-33475000D03*
D13*
X238995000Y-33475000D03*
D15*
X239495000Y-37225000D03*
D16*
X236250000Y-37225000D03*
X247740000Y-39425000D03*
D15*
X244495000Y-39425000D03*
%TD*%
D22*
%TO.C,C1*%
X71700000Y-45705000D03*
X71700000Y-43630000D03*
%TD*%
%TO.C,C44*%
X220370000Y-47425000D03*
X220370000Y-45350000D03*
%TD*%
D13*
%TO.C,SW28*%
X145937218Y-71600000D03*
D14*
X140437218Y-71600000D03*
D13*
X134937218Y-71600000D03*
D15*
X135437218Y-75350000D03*
D16*
X132192218Y-75350000D03*
X143682218Y-77550000D03*
D15*
X140437218Y-77550000D03*
%TD*%
D20*
%TO.C,D4*%
X215470000Y-28000000D03*
X215470000Y-31300000D03*
%TD*%
D25*
%TO.C,LED23*%
X260820000Y-48075000D03*
X260820000Y-49575000D03*
X266270000Y-48075000D03*
D26*
X266270000Y-49575000D03*
%TD*%
D20*
%TO.C,D9*%
X92400000Y-30000000D03*
X92400000Y-33300000D03*
%TD*%
D18*
%TO.C,LED34*%
X247220000Y-67625000D03*
X247220000Y-66125000D03*
X241770000Y-67625000D03*
D19*
X241770000Y-66125000D03*
%TD*%
D18*
%TO.C,LED8*%
X247220000Y-29525000D03*
X247220000Y-28025000D03*
X241770000Y-29525000D03*
D19*
X241770000Y-28025000D03*
%TD*%
D20*
%TO.C,D36*%
X73760000Y-67692500D03*
X73760000Y-70992500D03*
%TD*%
%TO.C,D7*%
X234620000Y-28850000D03*
X234620000Y-32150000D03*
%TD*%
D25*
%TO.C,LED41*%
X137712218Y-85200000D03*
X137712218Y-86700000D03*
X143162218Y-85200000D03*
D26*
X143162218Y-86700000D03*
%TD*%
D12*
%TO.C,C13*%
X145950000Y-65882500D03*
X145950000Y-67957500D03*
%TD*%
D13*
%TO.C,SW21*%
X230945000Y-51025000D03*
D14*
X225445000Y-51025000D03*
D13*
X219945000Y-51025000D03*
D15*
X220445000Y-54775000D03*
D16*
X217200000Y-54775000D03*
X228690000Y-56975000D03*
D15*
X225445000Y-56975000D03*
%TD*%
D28*
%TO.C,TP4*%
X288845000Y-48075000D03*
%TD*%
D18*
%TO.C,LED4*%
X209120000Y-29525000D03*
X209120000Y-28025000D03*
X203670000Y-29525000D03*
D19*
X203670000Y-28025000D03*
%TD*%
D12*
%TO.C,C26*%
X127290000Y-83500000D03*
X127290000Y-85575000D03*
%TD*%
D22*
%TO.C,C19*%
X71140000Y-58670000D03*
X71140000Y-56595000D03*
%TD*%
D20*
%TO.C,D18*%
X73700000Y-48650000D03*
X73700000Y-51950000D03*
%TD*%
%TO.C,D41*%
X235020000Y-84025000D03*
X235020000Y-87325000D03*
%TD*%
%TO.C,D29*%
X130700000Y-85400000D03*
X130700000Y-88700000D03*
%TD*%
D13*
%TO.C,SW23*%
X269045000Y-53525000D03*
D14*
X263545000Y-53525000D03*
D13*
X258045000Y-53525000D03*
D15*
X258545000Y-57275000D03*
D16*
X255300000Y-57275000D03*
X266790000Y-59475000D03*
D15*
X263545000Y-59475000D03*
%TD*%
D25*
%TO.C,LED15*%
X99612218Y-47100000D03*
X99612218Y-48600000D03*
X105062218Y-47100000D03*
D26*
X105062218Y-48600000D03*
%TD*%
D20*
%TO.C,D10*%
X73400000Y-31600000D03*
X73400000Y-34900000D03*
%TD*%
D22*
%TO.C,C21*%
X70470000Y-87960000D03*
X70470000Y-85885000D03*
%TD*%
%TO.C,C54*%
X238970000Y-86450000D03*
X238970000Y-84375000D03*
%TD*%
D13*
%TO.C,SW46*%
X269045000Y-72575000D03*
D14*
X263545000Y-72575000D03*
D13*
X258045000Y-72575000D03*
D15*
X258545000Y-76325000D03*
D16*
X255300000Y-76325000D03*
X266790000Y-78525000D03*
D15*
X263545000Y-78525000D03*
%TD*%
D13*
%TO.C,SW48*%
X288095000Y-72575000D03*
D14*
X282595000Y-72575000D03*
D13*
X277095000Y-72575000D03*
D15*
X277595000Y-76325000D03*
D16*
X274350000Y-76325000D03*
X285840000Y-78525000D03*
D15*
X282595000Y-78525000D03*
%TD*%
D20*
%TO.C,D32*%
X111700000Y-65850000D03*
X111700000Y-69150000D03*
%TD*%
D12*
%TO.C,C62*%
X88820000Y-28755000D03*
X88820000Y-30830000D03*
%TD*%
D13*
%TO.C,SW10*%
X69737218Y-34500000D03*
D14*
X64237218Y-34500000D03*
D13*
X58737218Y-34500000D03*
D15*
X59237218Y-38250000D03*
D16*
X55992218Y-38250000D03*
X67482218Y-40450000D03*
D15*
X64237218Y-40450000D03*
%TD*%
D13*
%TO.C,SW33*%
X88787218Y-91650000D03*
D14*
X83287218Y-91650000D03*
D13*
X77787218Y-91650000D03*
D15*
X78287218Y-95400000D03*
D16*
X75042218Y-95400000D03*
X86532218Y-97600000D03*
D15*
X83287218Y-97600000D03*
%TD*%
D12*
%TO.C,C46*%
X127060000Y-45325000D03*
X127060000Y-47400000D03*
%TD*%
D20*
%TO.C,D16*%
X111300000Y-46750000D03*
X111300000Y-50050000D03*
%TD*%
D13*
%TO.C,SW16*%
X107837218Y-52550000D03*
D14*
X102337218Y-52550000D03*
D13*
X96837218Y-52550000D03*
D15*
X97337218Y-56300000D03*
D16*
X94092218Y-56300000D03*
X105582218Y-58500000D03*
D15*
X102337218Y-58500000D03*
%TD*%
D22*
%TO.C,C10*%
X182170000Y-50850000D03*
X182170000Y-48775000D03*
%TD*%
D43*
%TO.C,C58*%
X191745000Y-25325000D03*
X197145000Y-25325000D03*
%TD*%
D12*
%TO.C,C18*%
X244270000Y-108150000D03*
X244270000Y-110225000D03*
%TD*%
D22*
%TO.C,C37*%
X107980000Y-48695000D03*
X107980000Y-46620000D03*
%TD*%
D13*
%TO.C,SW38*%
X192845000Y-73575000D03*
D14*
X187345000Y-73575000D03*
D13*
X181845000Y-73575000D03*
D15*
X182345000Y-77325000D03*
D16*
X179100000Y-77325000D03*
X190590000Y-79525000D03*
D15*
X187345000Y-79525000D03*
%TD*%
D22*
%TO.C,C4*%
X292445000Y-44087500D03*
X292445000Y-42012500D03*
%TD*%
D20*
%TO.C,D1*%
X168300000Y-33850000D03*
X168300000Y-37150000D03*
%TD*%
D12*
%TO.C,C47*%
X165040000Y-48742500D03*
X165040000Y-50817500D03*
%TD*%
D18*
%TO.C,LED27*%
X105062218Y-67690000D03*
X105062218Y-66190000D03*
X99612218Y-67690000D03*
D19*
X99612218Y-66190000D03*
%TD*%
D22*
%TO.C,C40*%
X277070000Y-87625000D03*
X277070000Y-85550000D03*
%TD*%
D44*
%TO.C,U3*%
X69140000Y-43780000D03*
X69140000Y-44730000D03*
X69140000Y-45680000D03*
X66865000Y-45680000D03*
X66865000Y-44730000D03*
X66865000Y-43780000D03*
%TD*%
D20*
%TO.C,D17*%
X92500000Y-49100000D03*
X92500000Y-52400000D03*
%TD*%
%TO.C,D25*%
X168200000Y-88400000D03*
X168200000Y-91700000D03*
%TD*%
D18*
%TO.C,LED59*%
X266614769Y-116963395D03*
X266614769Y-115463395D03*
X261164769Y-116963395D03*
D19*
X261164769Y-115463395D03*
%TD*%
D12*
%TO.C,C48*%
X165060000Y-67765000D03*
X165060000Y-69840000D03*
%TD*%
D25*
%TO.C,LED19*%
X184620000Y-49075000D03*
X184620000Y-50575000D03*
X190070000Y-49075000D03*
D26*
X190070000Y-50575000D03*
%TD*%
D25*
%TO.C,LED16*%
X118662218Y-45600000D03*
X118662218Y-47100000D03*
X124112218Y-45600000D03*
D26*
X124112218Y-47100000D03*
%TD*%
D22*
%TO.C,C31*%
X201370000Y-48750000D03*
X201370000Y-46675000D03*
%TD*%
D18*
%TO.C,LED12*%
X285320000Y-30525000D03*
X285320000Y-29025000D03*
X279870000Y-30525000D03*
D19*
X279870000Y-29025000D03*
%TD*%
D25*
%TO.C,LED22*%
X241770000Y-47075000D03*
X241770000Y-48575000D03*
X247220000Y-47075000D03*
D26*
X247220000Y-48575000D03*
%TD*%
D18*
%TO.C,LED53*%
X85825000Y-117050000D03*
X85825000Y-115550000D03*
X80375000Y-117050000D03*
D19*
X80375000Y-115550000D03*
%TD*%
D44*
%TO.C,U5*%
X76577500Y-43520000D03*
X76577500Y-44470000D03*
X76577500Y-45420000D03*
X74302500Y-45420000D03*
X74302500Y-44470000D03*
X74302500Y-43520000D03*
%TD*%
D20*
%TO.C,D28*%
X149200000Y-67150000D03*
X149200000Y-70450000D03*
%TD*%
D12*
%TO.C,C12*%
X287770000Y-28950000D03*
X287770000Y-31025000D03*
%TD*%
D20*
%TO.C,D46*%
X273545000Y-65825000D03*
X273545000Y-69125000D03*
%TD*%
%TO.C,D11*%
X272920000Y-30475000D03*
X272920000Y-33775000D03*
%TD*%
D25*
%TO.C,LED14*%
X80562218Y-48100000D03*
X80562218Y-49600000D03*
X86012218Y-48100000D03*
D26*
X86012218Y-49600000D03*
%TD*%
D13*
%TO.C,SW15*%
X126887218Y-51050000D03*
D14*
X121387218Y-51050000D03*
D13*
X115887218Y-51050000D03*
D15*
X116387218Y-54800000D03*
D16*
X113142218Y-54800000D03*
X124632218Y-57000000D03*
D15*
X121387218Y-57000000D03*
%TD*%
D25*
%TO.C,LED13*%
X61512218Y-48100000D03*
X61512218Y-49600000D03*
X66962218Y-48100000D03*
D26*
X66962218Y-49600000D03*
%TD*%
D22*
%TO.C,C35*%
X89350000Y-87845000D03*
X89350000Y-85770000D03*
%TD*%
D20*
%TO.C,D45*%
X272895000Y-85650000D03*
X272895000Y-88950000D03*
%TD*%
D25*
%TO.C,LED18*%
X156762218Y-49100000D03*
X156762218Y-50600000D03*
X162212218Y-49100000D03*
D26*
X162212218Y-50600000D03*
%TD*%
M02*
