%TF.GenerationSoftware,KiCad,Pcbnew,9.0.0*%
%TF.CreationDate,2026-01-24T15:45:23+11:00*%
%TF.ProjectId,Split Keyboard,53706c69-7420-44b6-9579-626f6172642e,rev?*%
%TF.SameCoordinates,Original*%
%TF.FileFunction,Legend,Top*%
%TF.FilePolarity,Positive*%
%FSLAX46Y46*%
G04 Gerber Fmt 4.6, Leading zero omitted, Abs format (unit mm)*
G04 Created by KiCad (PCBNEW 9.0.0) date 2026-01-24 15:45:23*
%MOMM*%
%LPD*%
G01*
G04 APERTURE LIST*
%ADD10C,0.150000*%
%ADD11C,0.120000*%
%ADD12C,0.100000*%
G04 APERTURE END LIST*
D10*
X305353333Y-68754819D02*
X304877143Y-68754819D01*
X304877143Y-68754819D02*
X304877143Y-67754819D01*
X305639048Y-67850057D02*
X305686667Y-67802438D01*
X305686667Y-67802438D02*
X305781905Y-67754819D01*
X305781905Y-67754819D02*
X306020000Y-67754819D01*
X306020000Y-67754819D02*
X306115238Y-67802438D01*
X306115238Y-67802438D02*
X306162857Y-67850057D01*
X306162857Y-67850057D02*
X306210476Y-67945295D01*
X306210476Y-67945295D02*
X306210476Y-68040533D01*
X306210476Y-68040533D02*
X306162857Y-68183390D01*
X306162857Y-68183390D02*
X305591429Y-68754819D01*
X305591429Y-68754819D02*
X306210476Y-68754819D01*
X313584819Y-83802857D02*
X313108628Y-84136190D01*
X313584819Y-84374285D02*
X312584819Y-84374285D01*
X312584819Y-84374285D02*
X312584819Y-83993333D01*
X312584819Y-83993333D02*
X312632438Y-83898095D01*
X312632438Y-83898095D02*
X312680057Y-83850476D01*
X312680057Y-83850476D02*
X312775295Y-83802857D01*
X312775295Y-83802857D02*
X312918152Y-83802857D01*
X312918152Y-83802857D02*
X313013390Y-83850476D01*
X313013390Y-83850476D02*
X313061009Y-83898095D01*
X313061009Y-83898095D02*
X313108628Y-83993333D01*
X313108628Y-83993333D02*
X313108628Y-84374285D01*
X313584819Y-82850476D02*
X313584819Y-83421904D01*
X313584819Y-83136190D02*
X312584819Y-83136190D01*
X312584819Y-83136190D02*
X312727676Y-83231428D01*
X312727676Y-83231428D02*
X312822914Y-83326666D01*
X312822914Y-83326666D02*
X312870533Y-83421904D01*
X312680057Y-82469523D02*
X312632438Y-82421904D01*
X312632438Y-82421904D02*
X312584819Y-82326666D01*
X312584819Y-82326666D02*
X312584819Y-82088571D01*
X312584819Y-82088571D02*
X312632438Y-81993333D01*
X312632438Y-81993333D02*
X312680057Y-81945714D01*
X312680057Y-81945714D02*
X312775295Y-81898095D01*
X312775295Y-81898095D02*
X312870533Y-81898095D01*
X312870533Y-81898095D02*
X313013390Y-81945714D01*
X313013390Y-81945714D02*
X313584819Y-82517142D01*
X313584819Y-82517142D02*
X313584819Y-81898095D01*
X46139580Y-82066666D02*
X46187200Y-82114285D01*
X46187200Y-82114285D02*
X46234819Y-82257142D01*
X46234819Y-82257142D02*
X46234819Y-82352380D01*
X46234819Y-82352380D02*
X46187200Y-82495237D01*
X46187200Y-82495237D02*
X46091961Y-82590475D01*
X46091961Y-82590475D02*
X45996723Y-82638094D01*
X45996723Y-82638094D02*
X45806247Y-82685713D01*
X45806247Y-82685713D02*
X45663390Y-82685713D01*
X45663390Y-82685713D02*
X45472914Y-82638094D01*
X45472914Y-82638094D02*
X45377676Y-82590475D01*
X45377676Y-82590475D02*
X45282438Y-82495237D01*
X45282438Y-82495237D02*
X45234819Y-82352380D01*
X45234819Y-82352380D02*
X45234819Y-82257142D01*
X45234819Y-82257142D02*
X45282438Y-82114285D01*
X45282438Y-82114285D02*
X45330057Y-82066666D01*
X45234819Y-81161904D02*
X45234819Y-81638094D01*
X45234819Y-81638094D02*
X45711009Y-81685713D01*
X45711009Y-81685713D02*
X45663390Y-81638094D01*
X45663390Y-81638094D02*
X45615771Y-81542856D01*
X45615771Y-81542856D02*
X45615771Y-81304761D01*
X45615771Y-81304761D02*
X45663390Y-81209523D01*
X45663390Y-81209523D02*
X45711009Y-81161904D01*
X45711009Y-81161904D02*
X45806247Y-81114285D01*
X45806247Y-81114285D02*
X46044342Y-81114285D01*
X46044342Y-81114285D02*
X46139580Y-81161904D01*
X46139580Y-81161904D02*
X46187200Y-81209523D01*
X46187200Y-81209523D02*
X46234819Y-81304761D01*
X46234819Y-81304761D02*
X46234819Y-81542856D01*
X46234819Y-81542856D02*
X46187200Y-81638094D01*
X46187200Y-81638094D02*
X46139580Y-81685713D01*
X54504819Y-87079166D02*
X54028628Y-87412499D01*
X54504819Y-87650594D02*
X53504819Y-87650594D01*
X53504819Y-87650594D02*
X53504819Y-87269642D01*
X53504819Y-87269642D02*
X53552438Y-87174404D01*
X53552438Y-87174404D02*
X53600057Y-87126785D01*
X53600057Y-87126785D02*
X53695295Y-87079166D01*
X53695295Y-87079166D02*
X53838152Y-87079166D01*
X53838152Y-87079166D02*
X53933390Y-87126785D01*
X53933390Y-87126785D02*
X53981009Y-87174404D01*
X53981009Y-87174404D02*
X54028628Y-87269642D01*
X54028628Y-87269642D02*
X54028628Y-87650594D01*
X54504819Y-86126785D02*
X54504819Y-86698213D01*
X54504819Y-86412499D02*
X53504819Y-86412499D01*
X53504819Y-86412499D02*
X53647676Y-86507737D01*
X53647676Y-86507737D02*
X53742914Y-86602975D01*
X53742914Y-86602975D02*
X53790533Y-86698213D01*
X313369580Y-79496666D02*
X313417200Y-79544285D01*
X313417200Y-79544285D02*
X313464819Y-79687142D01*
X313464819Y-79687142D02*
X313464819Y-79782380D01*
X313464819Y-79782380D02*
X313417200Y-79925237D01*
X313417200Y-79925237D02*
X313321961Y-80020475D01*
X313321961Y-80020475D02*
X313226723Y-80068094D01*
X313226723Y-80068094D02*
X313036247Y-80115713D01*
X313036247Y-80115713D02*
X312893390Y-80115713D01*
X312893390Y-80115713D02*
X312702914Y-80068094D01*
X312702914Y-80068094D02*
X312607676Y-80020475D01*
X312607676Y-80020475D02*
X312512438Y-79925237D01*
X312512438Y-79925237D02*
X312464819Y-79782380D01*
X312464819Y-79782380D02*
X312464819Y-79687142D01*
X312464819Y-79687142D02*
X312512438Y-79544285D01*
X312512438Y-79544285D02*
X312560057Y-79496666D01*
X312893390Y-78925237D02*
X312845771Y-79020475D01*
X312845771Y-79020475D02*
X312798152Y-79068094D01*
X312798152Y-79068094D02*
X312702914Y-79115713D01*
X312702914Y-79115713D02*
X312655295Y-79115713D01*
X312655295Y-79115713D02*
X312560057Y-79068094D01*
X312560057Y-79068094D02*
X312512438Y-79020475D01*
X312512438Y-79020475D02*
X312464819Y-78925237D01*
X312464819Y-78925237D02*
X312464819Y-78734761D01*
X312464819Y-78734761D02*
X312512438Y-78639523D01*
X312512438Y-78639523D02*
X312560057Y-78591904D01*
X312560057Y-78591904D02*
X312655295Y-78544285D01*
X312655295Y-78544285D02*
X312702914Y-78544285D01*
X312702914Y-78544285D02*
X312798152Y-78591904D01*
X312798152Y-78591904D02*
X312845771Y-78639523D01*
X312845771Y-78639523D02*
X312893390Y-78734761D01*
X312893390Y-78734761D02*
X312893390Y-78925237D01*
X312893390Y-78925237D02*
X312941009Y-79020475D01*
X312941009Y-79020475D02*
X312988628Y-79068094D01*
X312988628Y-79068094D02*
X313083866Y-79115713D01*
X313083866Y-79115713D02*
X313274342Y-79115713D01*
X313274342Y-79115713D02*
X313369580Y-79068094D01*
X313369580Y-79068094D02*
X313417200Y-79020475D01*
X313417200Y-79020475D02*
X313464819Y-78925237D01*
X313464819Y-78925237D02*
X313464819Y-78734761D01*
X313464819Y-78734761D02*
X313417200Y-78639523D01*
X313417200Y-78639523D02*
X313369580Y-78591904D01*
X313369580Y-78591904D02*
X313274342Y-78544285D01*
X313274342Y-78544285D02*
X313083866Y-78544285D01*
X313083866Y-78544285D02*
X312988628Y-78591904D01*
X312988628Y-78591904D02*
X312941009Y-78639523D01*
X312941009Y-78639523D02*
X312893390Y-78734761D01*
X41433333Y-78554819D02*
X40957143Y-78554819D01*
X40957143Y-78554819D02*
X40957143Y-77554819D01*
X42290476Y-78554819D02*
X41719048Y-78554819D01*
X42004762Y-78554819D02*
X42004762Y-77554819D01*
X42004762Y-77554819D02*
X41909524Y-77697676D01*
X41909524Y-77697676D02*
X41814286Y-77792914D01*
X41814286Y-77792914D02*
X41719048Y-77840533D01*
X54504819Y-82266666D02*
X54028628Y-82599999D01*
X54504819Y-82838094D02*
X53504819Y-82838094D01*
X53504819Y-82838094D02*
X53504819Y-82457142D01*
X53504819Y-82457142D02*
X53552438Y-82361904D01*
X53552438Y-82361904D02*
X53600057Y-82314285D01*
X53600057Y-82314285D02*
X53695295Y-82266666D01*
X53695295Y-82266666D02*
X53838152Y-82266666D01*
X53838152Y-82266666D02*
X53933390Y-82314285D01*
X53933390Y-82314285D02*
X53981009Y-82361904D01*
X53981009Y-82361904D02*
X54028628Y-82457142D01*
X54028628Y-82457142D02*
X54028628Y-82838094D01*
X53504819Y-81933332D02*
X53504819Y-81314285D01*
X53504819Y-81314285D02*
X53885771Y-81647618D01*
X53885771Y-81647618D02*
X53885771Y-81504761D01*
X53885771Y-81504761D02*
X53933390Y-81409523D01*
X53933390Y-81409523D02*
X53981009Y-81361904D01*
X53981009Y-81361904D02*
X54076247Y-81314285D01*
X54076247Y-81314285D02*
X54314342Y-81314285D01*
X54314342Y-81314285D02*
X54409580Y-81361904D01*
X54409580Y-81361904D02*
X54457200Y-81409523D01*
X54457200Y-81409523D02*
X54504819Y-81504761D01*
X54504819Y-81504761D02*
X54504819Y-81790475D01*
X54504819Y-81790475D02*
X54457200Y-81885713D01*
X54457200Y-81885713D02*
X54409580Y-81933332D01*
X33054819Y-75014285D02*
X32054819Y-75014285D01*
X32054819Y-75014285D02*
X32054819Y-74776190D01*
X32054819Y-74776190D02*
X32102438Y-74633333D01*
X32102438Y-74633333D02*
X32197676Y-74538095D01*
X32197676Y-74538095D02*
X32292914Y-74490476D01*
X32292914Y-74490476D02*
X32483390Y-74442857D01*
X32483390Y-74442857D02*
X32626247Y-74442857D01*
X32626247Y-74442857D02*
X32816723Y-74490476D01*
X32816723Y-74490476D02*
X32911961Y-74538095D01*
X32911961Y-74538095D02*
X33007200Y-74633333D01*
X33007200Y-74633333D02*
X33054819Y-74776190D01*
X33054819Y-74776190D02*
X33054819Y-75014285D01*
X32054819Y-73538095D02*
X32054819Y-74014285D01*
X32054819Y-74014285D02*
X32531009Y-74061904D01*
X32531009Y-74061904D02*
X32483390Y-74014285D01*
X32483390Y-74014285D02*
X32435771Y-73919047D01*
X32435771Y-73919047D02*
X32435771Y-73680952D01*
X32435771Y-73680952D02*
X32483390Y-73585714D01*
X32483390Y-73585714D02*
X32531009Y-73538095D01*
X32531009Y-73538095D02*
X32626247Y-73490476D01*
X32626247Y-73490476D02*
X32864342Y-73490476D01*
X32864342Y-73490476D02*
X32959580Y-73538095D01*
X32959580Y-73538095D02*
X33007200Y-73585714D01*
X33007200Y-73585714D02*
X33054819Y-73680952D01*
X33054819Y-73680952D02*
X33054819Y-73919047D01*
X33054819Y-73919047D02*
X33007200Y-74014285D01*
X33007200Y-74014285D02*
X32959580Y-74061904D01*
X32054819Y-72585714D02*
X32054819Y-73061904D01*
X32054819Y-73061904D02*
X32531009Y-73109523D01*
X32531009Y-73109523D02*
X32483390Y-73061904D01*
X32483390Y-73061904D02*
X32435771Y-72966666D01*
X32435771Y-72966666D02*
X32435771Y-72728571D01*
X32435771Y-72728571D02*
X32483390Y-72633333D01*
X32483390Y-72633333D02*
X32531009Y-72585714D01*
X32531009Y-72585714D02*
X32626247Y-72538095D01*
X32626247Y-72538095D02*
X32864342Y-72538095D01*
X32864342Y-72538095D02*
X32959580Y-72585714D01*
X32959580Y-72585714D02*
X33007200Y-72633333D01*
X33007200Y-72633333D02*
X33054819Y-72728571D01*
X33054819Y-72728571D02*
X33054819Y-72966666D01*
X33054819Y-72966666D02*
X33007200Y-73061904D01*
X33007200Y-73061904D02*
X32959580Y-73109523D01*
X308199819Y-74924285D02*
X307199819Y-74924285D01*
X307199819Y-74924285D02*
X307199819Y-74686190D01*
X307199819Y-74686190D02*
X307247438Y-74543333D01*
X307247438Y-74543333D02*
X307342676Y-74448095D01*
X307342676Y-74448095D02*
X307437914Y-74400476D01*
X307437914Y-74400476D02*
X307628390Y-74352857D01*
X307628390Y-74352857D02*
X307771247Y-74352857D01*
X307771247Y-74352857D02*
X307961723Y-74400476D01*
X307961723Y-74400476D02*
X308056961Y-74448095D01*
X308056961Y-74448095D02*
X308152200Y-74543333D01*
X308152200Y-74543333D02*
X308199819Y-74686190D01*
X308199819Y-74686190D02*
X308199819Y-74924285D01*
X307199819Y-73448095D02*
X307199819Y-73924285D01*
X307199819Y-73924285D02*
X307676009Y-73971904D01*
X307676009Y-73971904D02*
X307628390Y-73924285D01*
X307628390Y-73924285D02*
X307580771Y-73829047D01*
X307580771Y-73829047D02*
X307580771Y-73590952D01*
X307580771Y-73590952D02*
X307628390Y-73495714D01*
X307628390Y-73495714D02*
X307676009Y-73448095D01*
X307676009Y-73448095D02*
X307771247Y-73400476D01*
X307771247Y-73400476D02*
X308009342Y-73400476D01*
X308009342Y-73400476D02*
X308104580Y-73448095D01*
X308104580Y-73448095D02*
X308152200Y-73495714D01*
X308152200Y-73495714D02*
X308199819Y-73590952D01*
X308199819Y-73590952D02*
X308199819Y-73829047D01*
X308199819Y-73829047D02*
X308152200Y-73924285D01*
X308152200Y-73924285D02*
X308104580Y-73971904D01*
X307199819Y-72543333D02*
X307199819Y-72733809D01*
X307199819Y-72733809D02*
X307247438Y-72829047D01*
X307247438Y-72829047D02*
X307295057Y-72876666D01*
X307295057Y-72876666D02*
X307437914Y-72971904D01*
X307437914Y-72971904D02*
X307628390Y-73019523D01*
X307628390Y-73019523D02*
X308009342Y-73019523D01*
X308009342Y-73019523D02*
X308104580Y-72971904D01*
X308104580Y-72971904D02*
X308152200Y-72924285D01*
X308152200Y-72924285D02*
X308199819Y-72829047D01*
X308199819Y-72829047D02*
X308199819Y-72638571D01*
X308199819Y-72638571D02*
X308152200Y-72543333D01*
X308152200Y-72543333D02*
X308104580Y-72495714D01*
X308104580Y-72495714D02*
X308009342Y-72448095D01*
X308009342Y-72448095D02*
X307771247Y-72448095D01*
X307771247Y-72448095D02*
X307676009Y-72495714D01*
X307676009Y-72495714D02*
X307628390Y-72543333D01*
X307628390Y-72543333D02*
X307580771Y-72638571D01*
X307580771Y-72638571D02*
X307580771Y-72829047D01*
X307580771Y-72829047D02*
X307628390Y-72924285D01*
X307628390Y-72924285D02*
X307676009Y-72971904D01*
X307676009Y-72971904D02*
X307771247Y-73019523D01*
X36504819Y-81666666D02*
X36028628Y-81999999D01*
X36504819Y-82238094D02*
X35504819Y-82238094D01*
X35504819Y-82238094D02*
X35504819Y-81857142D01*
X35504819Y-81857142D02*
X35552438Y-81761904D01*
X35552438Y-81761904D02*
X35600057Y-81714285D01*
X35600057Y-81714285D02*
X35695295Y-81666666D01*
X35695295Y-81666666D02*
X35838152Y-81666666D01*
X35838152Y-81666666D02*
X35933390Y-81714285D01*
X35933390Y-81714285D02*
X35981009Y-81761904D01*
X35981009Y-81761904D02*
X36028628Y-81857142D01*
X36028628Y-81857142D02*
X36028628Y-82238094D01*
X36504819Y-81190475D02*
X36504819Y-80999999D01*
X36504819Y-80999999D02*
X36457200Y-80904761D01*
X36457200Y-80904761D02*
X36409580Y-80857142D01*
X36409580Y-80857142D02*
X36266723Y-80761904D01*
X36266723Y-80761904D02*
X36076247Y-80714285D01*
X36076247Y-80714285D02*
X35695295Y-80714285D01*
X35695295Y-80714285D02*
X35600057Y-80761904D01*
X35600057Y-80761904D02*
X35552438Y-80809523D01*
X35552438Y-80809523D02*
X35504819Y-80904761D01*
X35504819Y-80904761D02*
X35504819Y-81095237D01*
X35504819Y-81095237D02*
X35552438Y-81190475D01*
X35552438Y-81190475D02*
X35600057Y-81238094D01*
X35600057Y-81238094D02*
X35695295Y-81285713D01*
X35695295Y-81285713D02*
X35933390Y-81285713D01*
X35933390Y-81285713D02*
X36028628Y-81238094D01*
X36028628Y-81238094D02*
X36076247Y-81190475D01*
X36076247Y-81190475D02*
X36123866Y-81095237D01*
X36123866Y-81095237D02*
X36123866Y-80904761D01*
X36123866Y-80904761D02*
X36076247Y-80809523D01*
X36076247Y-80809523D02*
X36028628Y-80761904D01*
X36028628Y-80761904D02*
X35933390Y-80714285D01*
X35733333Y-77179580D02*
X35685714Y-77227200D01*
X35685714Y-77227200D02*
X35542857Y-77274819D01*
X35542857Y-77274819D02*
X35447619Y-77274819D01*
X35447619Y-77274819D02*
X35304762Y-77227200D01*
X35304762Y-77227200D02*
X35209524Y-77131961D01*
X35209524Y-77131961D02*
X35161905Y-77036723D01*
X35161905Y-77036723D02*
X35114286Y-76846247D01*
X35114286Y-76846247D02*
X35114286Y-76703390D01*
X35114286Y-76703390D02*
X35161905Y-76512914D01*
X35161905Y-76512914D02*
X35209524Y-76417676D01*
X35209524Y-76417676D02*
X35304762Y-76322438D01*
X35304762Y-76322438D02*
X35447619Y-76274819D01*
X35447619Y-76274819D02*
X35542857Y-76274819D01*
X35542857Y-76274819D02*
X35685714Y-76322438D01*
X35685714Y-76322438D02*
X35733333Y-76370057D01*
X36066667Y-76274819D02*
X36733333Y-76274819D01*
X36733333Y-76274819D02*
X36304762Y-77274819D01*
X291699819Y-81966666D02*
X291223628Y-82299999D01*
X291699819Y-82538094D02*
X290699819Y-82538094D01*
X290699819Y-82538094D02*
X290699819Y-82157142D01*
X290699819Y-82157142D02*
X290747438Y-82061904D01*
X290747438Y-82061904D02*
X290795057Y-82014285D01*
X290795057Y-82014285D02*
X290890295Y-81966666D01*
X290890295Y-81966666D02*
X291033152Y-81966666D01*
X291033152Y-81966666D02*
X291128390Y-82014285D01*
X291128390Y-82014285D02*
X291176009Y-82061904D01*
X291176009Y-82061904D02*
X291223628Y-82157142D01*
X291223628Y-82157142D02*
X291223628Y-82538094D01*
X291033152Y-81109523D02*
X291699819Y-81109523D01*
X290652200Y-81347618D02*
X291366485Y-81585713D01*
X291366485Y-81585713D02*
X291366485Y-80966666D01*
X35657142Y-83304819D02*
X35323809Y-82828628D01*
X35085714Y-83304819D02*
X35085714Y-82304819D01*
X35085714Y-82304819D02*
X35466666Y-82304819D01*
X35466666Y-82304819D02*
X35561904Y-82352438D01*
X35561904Y-82352438D02*
X35609523Y-82400057D01*
X35609523Y-82400057D02*
X35657142Y-82495295D01*
X35657142Y-82495295D02*
X35657142Y-82638152D01*
X35657142Y-82638152D02*
X35609523Y-82733390D01*
X35609523Y-82733390D02*
X35561904Y-82781009D01*
X35561904Y-82781009D02*
X35466666Y-82828628D01*
X35466666Y-82828628D02*
X35085714Y-82828628D01*
X36609523Y-83304819D02*
X36038095Y-83304819D01*
X36323809Y-83304819D02*
X36323809Y-82304819D01*
X36323809Y-82304819D02*
X36228571Y-82447676D01*
X36228571Y-82447676D02*
X36133333Y-82542914D01*
X36133333Y-82542914D02*
X36038095Y-82590533D01*
X37561904Y-83304819D02*
X36990476Y-83304819D01*
X37276190Y-83304819D02*
X37276190Y-82304819D01*
X37276190Y-82304819D02*
X37180952Y-82447676D01*
X37180952Y-82447676D02*
X37085714Y-82542914D01*
X37085714Y-82542914D02*
X36990476Y-82590533D01*
X40200595Y-76904819D02*
X40200595Y-77714342D01*
X40200595Y-77714342D02*
X40248214Y-77809580D01*
X40248214Y-77809580D02*
X40295833Y-77857200D01*
X40295833Y-77857200D02*
X40391071Y-77904819D01*
X40391071Y-77904819D02*
X40581547Y-77904819D01*
X40581547Y-77904819D02*
X40676785Y-77857200D01*
X40676785Y-77857200D02*
X40724404Y-77809580D01*
X40724404Y-77809580D02*
X40772023Y-77714342D01*
X40772023Y-77714342D02*
X40772023Y-76904819D01*
X41152976Y-76904819D02*
X41819642Y-76904819D01*
X41819642Y-76904819D02*
X41391071Y-77904819D01*
X304129580Y-81266666D02*
X304177200Y-81314285D01*
X304177200Y-81314285D02*
X304224819Y-81457142D01*
X304224819Y-81457142D02*
X304224819Y-81552380D01*
X304224819Y-81552380D02*
X304177200Y-81695237D01*
X304177200Y-81695237D02*
X304081961Y-81790475D01*
X304081961Y-81790475D02*
X303986723Y-81838094D01*
X303986723Y-81838094D02*
X303796247Y-81885713D01*
X303796247Y-81885713D02*
X303653390Y-81885713D01*
X303653390Y-81885713D02*
X303462914Y-81838094D01*
X303462914Y-81838094D02*
X303367676Y-81790475D01*
X303367676Y-81790475D02*
X303272438Y-81695237D01*
X303272438Y-81695237D02*
X303224819Y-81552380D01*
X303224819Y-81552380D02*
X303224819Y-81457142D01*
X303224819Y-81457142D02*
X303272438Y-81314285D01*
X303272438Y-81314285D02*
X303320057Y-81266666D01*
X303224819Y-80409523D02*
X303224819Y-80599999D01*
X303224819Y-80599999D02*
X303272438Y-80695237D01*
X303272438Y-80695237D02*
X303320057Y-80742856D01*
X303320057Y-80742856D02*
X303462914Y-80838094D01*
X303462914Y-80838094D02*
X303653390Y-80885713D01*
X303653390Y-80885713D02*
X304034342Y-80885713D01*
X304034342Y-80885713D02*
X304129580Y-80838094D01*
X304129580Y-80838094D02*
X304177200Y-80790475D01*
X304177200Y-80790475D02*
X304224819Y-80695237D01*
X304224819Y-80695237D02*
X304224819Y-80504761D01*
X304224819Y-80504761D02*
X304177200Y-80409523D01*
X304177200Y-80409523D02*
X304129580Y-80361904D01*
X304129580Y-80361904D02*
X304034342Y-80314285D01*
X304034342Y-80314285D02*
X303796247Y-80314285D01*
X303796247Y-80314285D02*
X303701009Y-80361904D01*
X303701009Y-80361904D02*
X303653390Y-80409523D01*
X303653390Y-80409523D02*
X303605771Y-80504761D01*
X303605771Y-80504761D02*
X303605771Y-80695237D01*
X303605771Y-80695237D02*
X303653390Y-80790475D01*
X303653390Y-80790475D02*
X303701009Y-80838094D01*
X303701009Y-80838094D02*
X303796247Y-80885713D01*
X291699819Y-86766666D02*
X291223628Y-87099999D01*
X291699819Y-87338094D02*
X290699819Y-87338094D01*
X290699819Y-87338094D02*
X290699819Y-86957142D01*
X290699819Y-86957142D02*
X290747438Y-86861904D01*
X290747438Y-86861904D02*
X290795057Y-86814285D01*
X290795057Y-86814285D02*
X290890295Y-86766666D01*
X290890295Y-86766666D02*
X291033152Y-86766666D01*
X291033152Y-86766666D02*
X291128390Y-86814285D01*
X291128390Y-86814285D02*
X291176009Y-86861904D01*
X291176009Y-86861904D02*
X291223628Y-86957142D01*
X291223628Y-86957142D02*
X291223628Y-87338094D01*
X290795057Y-86385713D02*
X290747438Y-86338094D01*
X290747438Y-86338094D02*
X290699819Y-86242856D01*
X290699819Y-86242856D02*
X290699819Y-86004761D01*
X290699819Y-86004761D02*
X290747438Y-85909523D01*
X290747438Y-85909523D02*
X290795057Y-85861904D01*
X290795057Y-85861904D02*
X290890295Y-85814285D01*
X290890295Y-85814285D02*
X290985533Y-85814285D01*
X290985533Y-85814285D02*
X291128390Y-85861904D01*
X291128390Y-85861904D02*
X291699819Y-86433332D01*
X291699819Y-86433332D02*
X291699819Y-85814285D01*
X304728095Y-81914819D02*
X304728095Y-82724342D01*
X304728095Y-82724342D02*
X304775714Y-82819580D01*
X304775714Y-82819580D02*
X304823333Y-82867200D01*
X304823333Y-82867200D02*
X304918571Y-82914819D01*
X304918571Y-82914819D02*
X305109047Y-82914819D01*
X305109047Y-82914819D02*
X305204285Y-82867200D01*
X305204285Y-82867200D02*
X305251904Y-82819580D01*
X305251904Y-82819580D02*
X305299523Y-82724342D01*
X305299523Y-82724342D02*
X305299523Y-81914819D01*
X305918571Y-82343390D02*
X305823333Y-82295771D01*
X305823333Y-82295771D02*
X305775714Y-82248152D01*
X305775714Y-82248152D02*
X305728095Y-82152914D01*
X305728095Y-82152914D02*
X305728095Y-82105295D01*
X305728095Y-82105295D02*
X305775714Y-82010057D01*
X305775714Y-82010057D02*
X305823333Y-81962438D01*
X305823333Y-81962438D02*
X305918571Y-81914819D01*
X305918571Y-81914819D02*
X306109047Y-81914819D01*
X306109047Y-81914819D02*
X306204285Y-81962438D01*
X306204285Y-81962438D02*
X306251904Y-82010057D01*
X306251904Y-82010057D02*
X306299523Y-82105295D01*
X306299523Y-82105295D02*
X306299523Y-82152914D01*
X306299523Y-82152914D02*
X306251904Y-82248152D01*
X306251904Y-82248152D02*
X306204285Y-82295771D01*
X306204285Y-82295771D02*
X306109047Y-82343390D01*
X306109047Y-82343390D02*
X305918571Y-82343390D01*
X305918571Y-82343390D02*
X305823333Y-82391009D01*
X305823333Y-82391009D02*
X305775714Y-82438628D01*
X305775714Y-82438628D02*
X305728095Y-82533866D01*
X305728095Y-82533866D02*
X305728095Y-82724342D01*
X305728095Y-82724342D02*
X305775714Y-82819580D01*
X305775714Y-82819580D02*
X305823333Y-82867200D01*
X305823333Y-82867200D02*
X305918571Y-82914819D01*
X305918571Y-82914819D02*
X306109047Y-82914819D01*
X306109047Y-82914819D02*
X306204285Y-82867200D01*
X306204285Y-82867200D02*
X306251904Y-82819580D01*
X306251904Y-82819580D02*
X306299523Y-82724342D01*
X306299523Y-82724342D02*
X306299523Y-82533866D01*
X306299523Y-82533866D02*
X306251904Y-82438628D01*
X306251904Y-82438628D02*
X306204285Y-82391009D01*
X306204285Y-82391009D02*
X306109047Y-82343390D01*
X311044819Y-80852857D02*
X310568628Y-81186190D01*
X311044819Y-81424285D02*
X310044819Y-81424285D01*
X310044819Y-81424285D02*
X310044819Y-81043333D01*
X310044819Y-81043333D02*
X310092438Y-80948095D01*
X310092438Y-80948095D02*
X310140057Y-80900476D01*
X310140057Y-80900476D02*
X310235295Y-80852857D01*
X310235295Y-80852857D02*
X310378152Y-80852857D01*
X310378152Y-80852857D02*
X310473390Y-80900476D01*
X310473390Y-80900476D02*
X310521009Y-80948095D01*
X310521009Y-80948095D02*
X310568628Y-81043333D01*
X310568628Y-81043333D02*
X310568628Y-81424285D01*
X311044819Y-79900476D02*
X311044819Y-80471904D01*
X311044819Y-80186190D02*
X310044819Y-80186190D01*
X310044819Y-80186190D02*
X310187676Y-80281428D01*
X310187676Y-80281428D02*
X310282914Y-80376666D01*
X310282914Y-80376666D02*
X310330533Y-80471904D01*
X310044819Y-79281428D02*
X310044819Y-79186190D01*
X310044819Y-79186190D02*
X310092438Y-79090952D01*
X310092438Y-79090952D02*
X310140057Y-79043333D01*
X310140057Y-79043333D02*
X310235295Y-78995714D01*
X310235295Y-78995714D02*
X310425771Y-78948095D01*
X310425771Y-78948095D02*
X310663866Y-78948095D01*
X310663866Y-78948095D02*
X310854342Y-78995714D01*
X310854342Y-78995714D02*
X310949580Y-79043333D01*
X310949580Y-79043333D02*
X310997200Y-79090952D01*
X310997200Y-79090952D02*
X311044819Y-79186190D01*
X311044819Y-79186190D02*
X311044819Y-79281428D01*
X311044819Y-79281428D02*
X310997200Y-79376666D01*
X310997200Y-79376666D02*
X310949580Y-79424285D01*
X310949580Y-79424285D02*
X310854342Y-79471904D01*
X310854342Y-79471904D02*
X310663866Y-79519523D01*
X310663866Y-79519523D02*
X310425771Y-79519523D01*
X310425771Y-79519523D02*
X310235295Y-79471904D01*
X310235295Y-79471904D02*
X310140057Y-79424285D01*
X310140057Y-79424285D02*
X310092438Y-79376666D01*
X310092438Y-79376666D02*
X310044819Y-79281428D01*
D11*
%TO.C,L2*%
X309780000Y-77560000D02*
X309780000Y-77310000D01*
X309780000Y-69040000D02*
X309780000Y-69290000D01*
X301260000Y-77560000D02*
X309780000Y-77560000D01*
X301260000Y-77560000D02*
X301260000Y-77310000D01*
X301260000Y-69040000D02*
X309780000Y-69040000D01*
X301260000Y-69040000D02*
X301260000Y-69290000D01*
%TO.C,R12*%
X312215000Y-82932936D02*
X312215000Y-83387064D01*
X310745000Y-82932936D02*
X310745000Y-83387064D01*
%TO.C,C5*%
X43365000Y-81638748D02*
X43365000Y-82161252D01*
X44835000Y-81638748D02*
X44835000Y-82161252D01*
%TO.C,R1*%
X51665000Y-86685436D02*
X51665000Y-87139564D01*
X53135000Y-86685436D02*
X53135000Y-87139564D01*
%TO.C,C8*%
X310595000Y-79068748D02*
X310595000Y-79591252D01*
X312065000Y-79068748D02*
X312065000Y-79591252D01*
%TO.C,L1*%
X37340000Y-68840000D02*
X37340000Y-69090000D01*
X37340000Y-77360000D02*
X37340000Y-77110000D01*
X45860000Y-68840000D02*
X37340000Y-68840000D01*
X45860000Y-68840000D02*
X45860000Y-69090000D01*
X45860000Y-77360000D02*
X37340000Y-77360000D01*
X45860000Y-77360000D02*
X45860000Y-77110000D01*
D12*
%TO.C,H1*%
X171820000Y-63098000D02*
G75*
G02*
X174820000Y-63098000I1500000J0D01*
G01*
X174820000Y-57098000D02*
G75*
G02*
X171820000Y-57098000I-1500000J0D01*
G01*
D11*
%TO.C,R3*%
X51665000Y-81872936D02*
X51665000Y-82327064D01*
X53135000Y-81872936D02*
X53135000Y-82327064D01*
%TO.C,D55*%
X33450000Y-77310000D02*
X33450000Y-71800000D01*
X33450000Y-77310000D02*
X36750000Y-77310000D01*
X36750000Y-77310000D02*
X36750000Y-71800000D01*
%TO.C,D56*%
X310270000Y-77370000D02*
X310270000Y-71860000D01*
X310270000Y-77370000D02*
X313570000Y-77370000D01*
X313570000Y-77370000D02*
X313570000Y-71860000D01*
%TO.C,R9*%
X36965000Y-81727064D02*
X36965000Y-81272936D01*
X38435000Y-81727064D02*
X38435000Y-81272936D01*
%TO.C,C7*%
X35638748Y-77765000D02*
X36161252Y-77765000D01*
X35638748Y-79235000D02*
X36161252Y-79235000D01*
%TO.C,R4*%
X292160000Y-82027064D02*
X292160000Y-81572936D01*
X293630000Y-82027064D02*
X293630000Y-81572936D01*
%TO.C,R11*%
X36072936Y-83765000D02*
X36527064Y-83765000D01*
X36072936Y-85235000D02*
X36527064Y-85235000D01*
D12*
%TO.C,H2*%
X171910000Y-96790000D02*
G75*
G02*
X174910000Y-96790000I1500000J0D01*
G01*
X174910000Y-90790000D02*
G75*
G02*
X171910000Y-90790000I-1500000J0D01*
G01*
D11*
%TO.C,U7*%
X40962500Y-78290000D02*
X40162500Y-78290000D01*
X40962500Y-78290000D02*
X41762500Y-78290000D01*
X40962500Y-81410000D02*
X40162500Y-81410000D01*
X40962500Y-81410000D02*
X41762500Y-81410000D01*
X39662500Y-78340000D02*
X39422500Y-78010000D01*
X39902500Y-78010000D01*
X39662500Y-78340000D01*
G36*
X39662500Y-78340000D02*
G01*
X39422500Y-78010000D01*
X39902500Y-78010000D01*
X39662500Y-78340000D01*
G37*
D12*
%TO.C,H15*%
X171840000Y-36344000D02*
G75*
G02*
X174840000Y-36344000I1500000J0D01*
G01*
X174840000Y-30344000D02*
G75*
G02*
X171840000Y-30344000I-1500000J0D01*
G01*
D11*
%TO.C,C6*%
X301355000Y-80838748D02*
X301355000Y-81361252D01*
X302825000Y-80838748D02*
X302825000Y-81361252D01*
%TO.C,R2*%
X292160000Y-86827064D02*
X292160000Y-86372936D01*
X293630000Y-86827064D02*
X293630000Y-86372936D01*
%TO.C,U8*%
X305490000Y-81620000D02*
X306290000Y-81620000D01*
X305490000Y-81620000D02*
X304690000Y-81620000D01*
X305490000Y-78500000D02*
X306290000Y-78500000D01*
X305490000Y-78500000D02*
X304690000Y-78500000D01*
X307030000Y-81900000D02*
X306550000Y-81900000D01*
X306790000Y-81570000D01*
X307030000Y-81900000D01*
G36*
X307030000Y-81900000D02*
G01*
X306550000Y-81900000D01*
X306790000Y-81570000D01*
X307030000Y-81900000D01*
G37*
%TO.C,R10*%
X309675000Y-79982936D02*
X309675000Y-80437064D01*
X308205000Y-79982936D02*
X308205000Y-80437064D01*
%TD*%
M02*
